<svg version="1.2" xmlns="http://www.w3.org/2000/svg" viewBox="0 0 2655 614" width="2655" height="614">
	<title>lava-particles-svg</title>
	<defs>
		<clipPath clipPathUnits="userSpaceOnUse" id="cp1">
			<path d="m4280.96 614.08h-4515v-2100h4515z"/>
		</clipPath>
	</defs>
	<style>
		.s0 { mix-blend-mode: overlay;fill: #ffffff } 
		.s1 { opacity: .8;fill: #cd4fce } 
		.s2 { opacity: .9;mix-blend-mode: screen;fill: #ffcfff } 
		.s3 { opacity: .8;fill: #f687f9 } 
		.s4 { opacity: .5;fill: #f687f9 } 
	</style>
	<g id="_Artboards_">
	</g>
	<g id="Layer 1">
		<g id="Clip-Path: Clip-Path: &lt;Clip Group&gt;" clip-path="url(#cp1)">
			<g id="Clip-Path: &lt;Clip Group&gt;">
				<g id="&lt;Clip Group&gt;">
					<g id="&lt;Group&gt;">
						<g id="&lt;Group&gt;">
							<g id="&lt;Group&gt;">
							</g>
							<g id="&lt;Group&gt;">
							</g>
						</g>
						<g id="&lt;Group&gt;">
							<g id="&lt;Group&gt;">
							</g>
							<g id="&lt;Group&gt;">
							</g>
							<g id="&lt;Group&gt;">
							</g>
						</g>
						<g id="&lt;Group&gt;">
							<g id="&lt;Group&gt;">
							</g>
						</g>
						<g id="&lt;Group&gt;">
						</g>
						<g id="&lt;Group&gt;">
							<g id="&lt;Group&gt;">
							</g>
							<g id="&lt;Group&gt;">
							</g>
							<g id="&lt;Group&gt;">
							</g>
							<g id="&lt;Group&gt;">
							</g>
							<g id="&lt;Group&gt;" style="opacity: .5">
								<path id="&lt;Path&gt;" class="s0" d="m2159.9 339.7l5.4-0.2c-1.9 0.1-3.8 0.2-5.4 0.2z"/>
							</g>
							<g id="&lt;Group&gt;" style="opacity: .5">
							</g>
							<path id="&lt;Path&gt;" class="s1" d="m825.9 375.7c0 4.7-4.1 8.5-9.2 8.4-5.1-0.1-9.2-4-9.2-8.7 0-4.8 4.1-8.5 9.2-8.4 5.1 0.1 9.2 4 9.2 8.7z"/>
							<path id="&lt;Path&gt;" class="s1" d="m447 431.6c0 3.3-2.9 5.9-6.5 5.9-3.7 0-6.6-2.7-6.6-6.1 0-3.3 2.9-5.9 6.6-5.9 3.6 0.1 6.5 2.8 6.5 6.1z"/>
							<path id="&lt;Path&gt;" class="s2" d="m367.8 406.9c0 3.4-2.9 6-6.5 6-3.7 0-6.6-2.8-6.6-6.1 0-3.3 2.9-6 6.6-5.9 3.6 0 6.5 2.7 6.5 6z"/>
							<path id="&lt;Path&gt;" class="s2" d="m829.8 430.3c0 3.3-2.9 6-6.5 6-3.7 0-6.6-2.8-6.6-6.2 0-3.4 2.9-6.1 6.6-6.1 3.6 0.1 6.5 2.9 6.5 6.3z"/>
							<path id="&lt;Path&gt;" class="s2" d="m401.6 489.6c0 2.7-2.4 4.9-5.3 4.9-2.9-0.1-5.2-2.3-5.2-5 0-2.8 2.3-4.9 5.2-4.9 2.9 0 5.3 2.2 5.3 5z"/>
							<path id="&lt;Path&gt;" class="s1" d="m1184.3 310.2c0 2.2-1.9 3.9-4.3 3.9-2.5-0.1-4.4-1.9-4.4-4.1 0-2.2 1.9-3.9 4.4-3.9 2.4 0.1 4.3 1.9 4.3 4.1z"/>
							<path id="&lt;Path&gt;" class="s3" d="m169.3 504.6c0 2.2-1.9 3.9-4.3 3.9-2.5 0-4.4-1.9-4.4-4.1 0-2.2 1.9-3.9 4.4-3.9 2.4 0.1 4.3 1.9 4.3 4.1z"/>
							<path id="&lt;Path&gt;" class="s1" d="m202.9 93.1c0 4.8-4.1 8.6-9.2 8.5-5.1-0.1-9.2-4-9.2-8.8 0-4.7 4.1-8.5 9.2-8.4 5.1 0 9.2 4 9.2 8.7z"/>
							<path id="&lt;Path&gt;" class="s3" d="m156.6 257.6c0 4.9-4.1 8.9-9.1 8.7-5.1-0.1-9.2-4.2-9.2-9.2 0-4.9 4.1-8.9 9.2-8.7 5 0.1 9.1 4.2 9.1 9.2z"/>
							<path id="&lt;Path&gt;" class="s3" d="m197.3 236.4c0 2.8-2.3 5.1-5.2 5-2.9-0.1-5.3-2.4-5.3-5.3 0-2.8 2.4-5 5.3-5 2.9 0.1 5.2 2.5 5.2 5.3z"/>
							<path id="&lt;Path&gt;" class="s3" d="m472.1 270.5c0 2.7-2.4 4.9-5.3 4.9-2.9-0.1-5.2-2.4-5.2-5.2 0-2.8 2.3-5 5.2-4.9 2.9 0.1 5.3 2.4 5.3 5.2z"/>
							<path id="&lt;Path&gt;" class="s3" d="m663.7 462.6c0 2.7-2.3 4.9-5.2 4.9-2.9 0-5.3-2.3-5.3-5 0-2.8 2.4-4.9 5.3-4.9 2.9 0 5.2 2.3 5.2 5z"/>
							<path id="&lt;Path&gt;" class="s3" d="m487.8 536.8c0 2.7-2.3 5-5.2 5-2.9-0.1-5.3-2.3-5.3-5.1 0-2.8 2.4-5 5.3-5 2.9 0 5.2 2.3 5.2 5.1z"/>
							<path id="&lt;Path&gt;" class="s3" d="m336.5 463.2c0 2.8-2.4 5.1-5.3 5.1-2.9-0.1-5.2-2.4-5.2-5.2 0-2.8 2.3-5 5.2-5 2.9 0 5.3 2.3 5.3 5.1z"/>
							<path id="&lt;Path&gt;" class="s3" d="m446.7 548.3c0 1.4-1.2 2.5-2.6 2.5-1.5 0-2.6-1.2-2.6-2.5 0-1.4 1.1-2.6 2.6-2.6 1.4 0.1 2.6 1.2 2.6 2.6z"/>
							<path id="&lt;Path&gt;" class="s3" d="m469.5 496.5c0 1.4-1.2 2.5-2.7 2.5-1.4 0-2.6-1.2-2.6-2.6 0-1.4 1.2-2.5 2.6-2.5 1.5 0.1 2.7 1.2 2.7 2.6z"/>
							<path id="&lt;Path&gt;" class="s3" d="m685.6 323.5c0 1.4-1.2 2.5-2.6 2.4-1.5 0-2.7-1.1-2.7-2.5 0-1.3 1.2-2.4 2.7-2.4 1.4 0 2.6 1.2 2.6 2.5z"/>
							<path id="&lt;Path&gt;" class="s1" d="m768.7 432.2c0 2.3-1.9 4.1-4.4 4-2.4 0-4.3-1.8-4.3-4.1 0-2.3 1.9-4.1 4.3-4 2.5 0 4.4 1.8 4.4 4.1z"/>
							<path id="&lt;Path&gt;" class="s1" d="m876.8 369.8c0 2.3-2 4.1-4.4 4-2.4 0-4.4-1.9-4.4-4.1 0-2.3 2-4.1 4.4-4 2.4 0 4.4 1.9 4.4 4.1z"/>
							<path id="&lt;Path&gt;" class="s1" d="m724.4 298.4c0 2.3-2 4.1-4.4 4.1-2.4-0.1-4.4-2-4.4-4.2 0-2.3 2-4.1 4.4-4.1 2.4 0.1 4.4 2 4.4 4.2z"/>
							<path id="&lt;Path&gt; copy" class="s1" d="m1184.3 310.2c0 2.2-1.9 3.9-4.3 3.9-2.5-0.1-4.4-1.9-4.4-4.1 0-2.2 1.9-3.9 4.4-3.9 2.4 0.1 4.3 1.9 4.3 4.1z"/>
							<path id="&lt;Path&gt; copy 2" class="s3" d="m988.7 380.2c0 2.2-1.9 3.9-4.4 3.8-2.4 0-4.3-1.9-4.3-4.1 0-2.1 1.9-3.9 4.3-3.8 2.5 0.1 4.4 1.9 4.4 4.1z"/>
							<path id="&lt;Path&gt; copy 32" class="s1" d="m499.3 442.2c0 2.2-1.9 3.9-4.3 3.9-2.5-0.1-4.4-1.9-4.4-4.1 0-2.2 1.9-3.9 4.4-3.9 2.4 0.1 4.3 1.9 4.3 4.1z"/>
							<path id="&lt;Path&gt; copy 33" class="s3" d="m974.7 331.2c0 2.2-1.9 3.9-4.4 3.8-2.4 0-4.3-1.9-4.3-4.1 0-2.1 1.9-3.9 4.3-3.8 2.5 0.1 4.4 1.9 4.4 4.1z"/>
							<path id="&lt;Path&gt; copy 34" class="s3" d="m1054.3 374.6c0 2.2-1.9 3.9-4.3 3.9-2.5 0-4.4-1.9-4.4-4.1 0-2.2 1.9-3.9 4.4-3.9 2.4 0.1 4.3 1.9 4.3 4.1z"/>
							<path id="&lt;Path&gt; copy 36" class="s3" d="m974.7 331.2c0 2.2-1.9 3.9-4.4 3.8-2.4 0-4.3-1.9-4.3-4.1 0-2.1 1.9-3.9 4.3-3.8 2.5 0.1 4.4 1.9 4.4 4.1z"/>
							<path id="&lt;Path&gt; copy 14" class="s1" d="m1095.7 254.1c0 2.3-1.9 4.1-4.4 4-2.4 0-4.3-1.9-4.3-4.1 0-2.3 1.9-4.1 4.3-4.1 2.5 0.1 4.4 2 4.4 4.2z"/>
							<path id="&lt;Path&gt; copy 15" class="s1" d="m1052.4 163.4c0 2.3-2 4.1-4.4 4.1-2.4-0.1-4.4-2-4.4-4.2 0-2.3 2-4.1 4.4-4.1 2.4 0.1 4.4 2 4.4 4.2z"/>
							<path id="&lt;Path&gt; copy 20" class="s1" d="m928.4 286.4c0 2.3-2 4.1-4.4 4.1-2.4-0.1-4.4-2-4.4-4.2 0-2.3 2-4.1 4.4-4.1 2.4 0.1 4.4 2 4.4 4.2z"/>
							<path id="&lt;Path&gt;" class="s1" d="m674.6 382.3c0 2.3-1.9 4.1-4.3 4-2.4 0-4.4-1.9-4.4-4.2 0-2.2 2-4.1 4.4-4 2.4 0 4.3 1.9 4.3 4.2z"/>
							<path id="&lt;Path&gt; copy 37" class="s2" d="m779.5 217.6c0 1.3-1.2 2.4-2.6 2.4-1.5 0-2.7-1.1-2.7-2.5 0-1.4 1.2-2.4 2.7-2.4 1.4 0 2.6 1.1 2.6 2.5z"/>
							<path id="&lt;Path&gt; copy 38" class="s3" d="m703.6 139.5c0 1.4-1.2 2.5-2.6 2.4-1.5 0-2.7-1.1-2.7-2.5 0-1.3 1.2-2.4 2.7-2.4 1.4 0 2.6 1.2 2.6 2.5z"/>
							<path id="&lt;Path&gt; copy 39" class="s3" d="m738.6 161.6c0 1.4-1.2 2.5-2.6 2.5-1.5-0.1-2.7-1.2-2.7-2.6 0-1.3 1.2-2.4 2.7-2.4 1.4 0.1 2.6 1.2 2.6 2.5z"/>
							<path id="&lt;Path&gt; copy 40" class="s1" d="m637.4 172.4c0 2.3-2 4.1-4.4 4.1-2.4-0.1-4.4-2-4.4-4.2 0-2.3 2-4.1 4.4-4.1 2.4 0.1 4.4 2 4.4 4.2z"/>
							<path id="&lt;Path&gt; copy 46" class="s1" d="m651.4 78.4c0 2.3-2 4.1-4.4 4.1-2.4-0.1-4.4-2-4.4-4.2 0-2.3 2-4.1 4.4-4.1 2.4 0.1 4.4 2 4.4 4.2z"/>
							<path id="&lt;Path&gt; copy 49" class="s1" d="m825.4 97.4c0 2.3-2 4.1-4.4 4.1-2.4-0.1-4.4-2-4.4-4.2 0-2.3 2-4.1 4.4-4.1 2.4 0.1 4.4 2 4.4 4.2z"/>
							<path id="&lt;Path&gt; copy 50" class="s1" d="m861.6 207.3c0 2.3-1.9 4.1-4.3 4-2.4 0-4.4-1.9-4.4-4.2 0-2.2 2-4.1 4.4-4 2.4 0 4.3 1.9 4.3 4.2z"/>
							<g id="&lt;Group&gt;">
							</g>
							<g id="&lt;Group&gt;">
							</g>
							<g id="&lt;Group&gt;">
								<path id="&lt;Path&gt;" class="s4" d="m102 393.6c0 5.8-4.7 10.5-10.5 10.5-5.8 0-10.5-4.7-10.5-10.5 0-5.8 4.7-10.5 10.5-10.5 5.8 0 10.5 4.7 10.5 10.5z"/>
								<path id="&lt;Path&gt;" class="s4" d="m128.2 531c0 3.3-2.7 6.1-6.1 6.1-3.4 0-6.1-2.8-6.1-6.1 0-3.4 2.7-6.2 6.1-6.2 3.4 0 6.1 2.8 6.1 6.2z"/>
								<path id="&lt;Path&gt;" class="s4" d="m12.7 473.2c0 3.4-2.7 6.1-6.1 6.1-3.4 0-6.1-2.7-6.1-6.1 0-3.4 2.7-6.1 6.1-6.1 3.4 0 6.1 2.7 6.1 6.1z"/>
								<path id="&lt;Path&gt; copy 10" class="s4" d="m276.2 156c0 8.7-7 15.7-15.7 15.7-8.7 0-15.8-7-15.8-15.7 0-8.7 7.1-15.8 15.8-15.8 8.7 0 15.7 7.1 15.7 15.8z"/>
								<path id="&lt;Path&gt;" class="s4" d="m553 397.8c0 8.7-7.1 15.8-15.8 15.8-8.7 0-15.7-7.1-15.7-15.8 0-8.7 7-15.7 15.7-15.7 8.7 0 15.8 7 15.8 15.7z"/>
								<path id="&lt;Path&gt;" class="s4" d="m226.1 530.1c0 8.7-7.1 15.7-15.8 15.7-8.7 0-15.7-7-15.7-15.7 0-8.7 7-15.8 15.7-15.8 8.7 0 15.8 7.1 15.8 15.8z"/>
								<path id="&lt;Path&gt;" class="s4" d="m63.5 583.5c0 4.3-3.6 7.8-7.9 7.8-4.4 0-7.9-3.5-7.9-7.8 0-4.4 3.5-7.9 7.9-7.9 4.3 0 7.9 3.5 7.9 7.9z"/>
								<path id="&lt;Path&gt;" class="s4" d="m46 449.6c0 3.4-2.8 6.1-6.2 6.1-3.3 0-6.1-2.7-6.1-6.1 0-3.4 2.8-6.1 6.1-6.1 3.4 0 6.2 2.7 6.2 6.1z"/>
								<path id="&lt;Path&gt;" class="s2" d="m309.3 495.3c0 1.8-1.4 3.3-3.2 3.3-1.9 0-3.3-1.5-3.3-3.3 0-1.8 1.4-3.3 3.3-3.3 1.8 0 3.2 1.5 3.2 3.3z"/>
								<path id="&lt;Path&gt;" class="s2" d="m227.3 463.2c0 1.8-1.5 3.2-3.3 3.2-1.8 0-3.3-1.4-3.3-3.2 0-1.9 1.5-3.3 3.3-3.3 1.8 0 3.3 1.4 3.3 3.3z"/>
								<path id="&lt;Path&gt;" class="s2" d="m139.4 559.6c0 1.8-1.5 3.3-3.3 3.3-1.8 0-3.3-1.5-3.3-3.3 0-1.8 1.5-3.3 3.3-3.3 1.8 0 3.3 1.5 3.3 3.3z"/>
								<path id="&lt;Path&gt;" class="s2" d="m257.5 581.3c0 1.8-1.5 3.3-3.3 3.3-1.8 0-3.3-1.5-3.3-3.3 0-1.8 1.5-3.3 3.3-3.3 1.8 0 3.3 1.5 3.3 3.3z"/>
								<path id="&lt;Path&gt; copy 21" class="s4" d="m324 201.6c0 5.8-4.7 10.5-10.5 10.5-5.8 0-10.5-4.7-10.5-10.5 0-5.8 4.7-10.5 10.5-10.5 5.8 0 10.5 4.7 10.5 10.5z"/>
								<path id="&lt;Path&gt; copy 22" class="s4" d="m350.2 339c0 3.3-2.7 6.1-6.1 6.1-3.4 0-6.1-2.8-6.1-6.1 0-3.4 2.7-6.2 6.1-6.2 3.4 0 6.1 2.8 6.1 6.2z"/>
								<path id="&lt;Path&gt; copy 24" class="s4" d="m170.1 359.1c0 8.7-7.1 15.7-15.8 15.7-8.7 0-15.7-7-15.7-15.7 0-8.7 7-15.8 15.7-15.8 8.7 0 15.8 7.1 15.8 15.8z"/>
								<path id="&lt;Path&gt; copy 25" class="s4" d="m285.5 391.5c0 4.3-3.6 7.8-7.9 7.8-4.4 0-7.9-3.5-7.9-7.8 0-4.4 3.5-7.9 7.9-7.9 4.3 0 7.9 3.5 7.9 7.9z"/>
								<path id="&lt;Path&gt; copy 26" class="s4" d="m268 257.6c0 3.4-2.8 6.1-6.2 6.1-3.3 0-6.1-2.7-6.1-6.1 0-3.4 2.8-6.1 6.1-6.1 3.4 0 6.2 2.7 6.2 6.1z"/>
								<path id="&lt;Path&gt; copy 27" class="s2" d="m531.3 303.3c0 1.8-1.4 3.3-3.2 3.3-1.9 0-3.3-1.5-3.3-3.3 0-1.8 1.4-3.3 3.3-3.3 1.8 0 3.2 1.5 3.2 3.3z"/>
								<path id="&lt;Path&gt; copy 28" class="s2" d="m449.3 280.2c0 1.8-1.5 3.2-3.3 3.2-1.8 0-3.3-1.4-3.3-3.2 0-1.9 1.5-3.3 3.3-3.3 1.8 0 3.3 1.4 3.3 3.3z"/>
								<path id="&lt;Path&gt; copy 29" class="s2" d="m361.4 367.6c0 1.8-1.5 3.3-3.3 3.3-1.8 0-3.3-1.5-3.3-3.3 0-1.8 1.5-3.3 3.3-3.3 1.8 0 3.3 1.5 3.3 3.3z"/>
								<path id="&lt;Path&gt; copy 30" class="s2" d="m479.5 389.3c0 1.8-1.5 3.3-3.3 3.3-1.8 0-3.3-1.5-3.3-3.3 0-1.8 1.5-3.3 3.3-3.3 1.8 0 3.3 1.5 3.3 3.3z"/>
								<path id="&lt;Path&gt;" class="s2" d="m589.5 454.1c0 4.8-4 8.7-8.8 8.7-4.8 0-8.7-3.9-8.7-8.7 0-4.8 3.9-8.8 8.7-8.8 4.8 0 8.8 4 8.8 8.8z"/>
								<path id="&lt;Path&gt;" class="s2" d="m539.5 477.6c0 4.8-4 8.7-8.8 8.7-4.8 0-8.7-3.9-8.7-8.7 0-4.8 3.9-8.8 8.7-8.8 4.8 0 8.8 4 8.8 8.8z"/>
							</g>
						</g>
						<g id="&lt;Group&gt;">
							<g id="&lt;Group&gt;">
								<g id="&lt;Group&gt;">
								</g>
							</g>
							<g id="&lt;Group&gt;">
								<g id="&lt;Group&gt;">
								</g>
							</g>
						</g>
						<g id="&lt;Group&gt;">
						</g>
						<g id="&lt;Group&gt;">
						</g>
					</g>
				</g>
			</g>
		</g>
	</g>
</svg>