<svg version="1.2" xmlns="http://www.w3.org/2000/svg" viewBox="0 0 1322 1327" width="522" height="524">
	<title>planet-large-right-svg</title>
	<defs>
		<clipPath clipPathUnits="userSpaceOnUse" id="cp1">
			<path d="m1461.96 1775.08h-4515v-2100h4515z"/>
		</clipPath>
		<linearGradient id="g1" x2="1" gradientUnits="userSpaceOnUse" gradientTransform="matrix(1034.001,1316.203,-1314.959,1033.024,761.962,-565.094)">
			<stop offset=".008" stop-color="#94ffff"/>
			<stop offset=".984" stop-color="#6bb5ff"/>
		</linearGradient>
		<linearGradient id="g2" x2="1" gradientUnits="userSpaceOnUse" gradientTransform="matrix(826.931,545.554,-354.738,537.698,573.495,-113.966)">
			<stop offset="0" stop-color="#d9ffff"/>
			<stop offset=".162" stop-color="#ffffff"/>
			<stop offset=".995" stop-color="#94ffff"/>
		</linearGradient>
		<linearGradient id="g3" x2="1" gradientUnits="userSpaceOnUse" gradientTransform="matrix(983.201,648.65,-492.474,746.475,512.411,-43.247)">
			<stop offset="0" stop-color="#d9ffff"/>
			<stop offset=".162" stop-color="#ffffff"/>
			<stop offset=".995" stop-color="#94ffff"/>
		</linearGradient>
		<linearGradient id="g4" x2="1" gradientUnits="userSpaceOnUse" gradientTransform="matrix(547.203,361.008,-311.061,471.495,813.487,-28.638)">
			<stop offset="0" stop-color="#ffffff"/>
			<stop offset=".995" stop-color="#94ffff"/>
		</linearGradient>
		<linearGradient id="g5" x2="1" gradientUnits="userSpaceOnUse" gradientTransform="matrix(471.36,527.779,-147.433,131.673,221.697,750.271)">
			<stop offset="0" stop-color="#d9ffff"/>
			<stop offset=".162" stop-color="#ffffff"/>
			<stop offset=".995" stop-color="#94ffff"/>
		</linearGradient>
		<linearGradient id="g6" x2="1" gradientUnits="userSpaceOnUse" gradientTransform="matrix(1290.153,430,-697.885,2093.904,389.715,-349.904)">
			<stop offset=".005" stop-color="#94ffff"/>
			<stop offset=".984" stop-color="#6bb5ff"/>
		</linearGradient>
		<linearGradient id="g7" x2="1" gradientUnits="userSpaceOnUse" gradientTransform="matrix(1264.136,421.328,-664.519,1993.797,380.24,-231.269)">
			<stop offset="0" stop-color="#ffffff"/>
			<stop offset=".995" stop-color="#94ffff"/>
		</linearGradient>
	</defs>
	<style>
		.s0 { mix-blend-mode: screen;fill: url(#g1) } 
		.s1 { mix-blend-mode: screen;fill: url(#g2) } 
		.s2 { mix-blend-mode: screen;fill: url(#g3) } 
		.s3 { mix-blend-mode: screen;fill: url(#g4) } 
		.s4 { mix-blend-mode: screen;fill: url(#g5) } 
		.s5 { mix-blend-mode: multiply;fill: url(#g6) } 
		.s6 { opacity: .6;mix-blend-mode: screen;fill: url(#g7) } 
		.s7 { mix-blend-mode: screen;fill: #ffffff } 
	</style>
	<g id="_Artboards_">
	</g>
	<g id="Layer 1">
		<g id="Clip-Path: Clip-Path: Clip-Path: Clip-Path: Clip-Path: Clip-Path: &lt;Clip Group&gt;" clip-path="url(#cp1)">
			<g id="Clip-Path: Clip-Path: Clip-Path: Clip-Path: Clip-Path: &lt;Clip Group&gt;">
				<g id="Clip-Path: Clip-Path: Clip-Path: Clip-Path: &lt;Clip Group&gt;">
					<g id="Clip-Path: Clip-Path: Clip-Path: &lt;Clip Group&gt;">
						<g id="Clip-Path: Clip-Path: &lt;Clip Group&gt;">
							<g id="Clip-Path: &lt;Clip Group&gt;">
								<g id="&lt;Clip Group&gt;">
									<g id="&lt;Group&gt;">
										<g id="non-perfect-planet">
											<g id="planet">
												<g id="&lt;Group&gt;" style="opacity: .5">
												</g>
												<g id="&lt;Group&gt;" style="opacity: .3">
												</g>
												<g id="&lt;Group&gt;" style="opacity: .3">
												</g>
												<g id="&lt;Group&gt;" style="opacity: .3">
												</g>
												<g id="&lt;Group&gt;" style="opacity: .3">
												</g>
											</g>
										</g>
										<g id="mini-star">
											<g id="&lt;Group&gt;" style="opacity: .8">
											</g>
											<g id="&lt;Group&gt;">
											</g>
										</g>
										<g id="mini-planet-left">
										</g>
										<g id="generic-sta">
											<g id="&lt;Group&gt;" style="opacity: .5">
											</g>
											<g id="&lt;Group&gt;" style="opacity: .5">
											</g>
											<g id="&lt;Group&gt;" style="opacity: .5">
											</g>
											<g id="&lt;Group&gt;" style="opacity: .9">
											</g>
											<g id="&lt;Group&gt;" style="opacity: .2">
											</g>
											<g id="&lt;Group&gt;" style="opacity: .2">
											</g>
											<g id="&lt;Group&gt;" style="opacity: .2">
											</g>
											<g id="&lt;Group&gt;" style="opacity: .2">
											</g>
											<g id="&lt;Group&gt;">
												<g id="&lt;Group&gt;" style="opacity: .5">
												</g>
												<g id="&lt;Group&gt;" style="opacity: .2">
												</g>
												<g id="&lt;Group&gt;" style="opacity: .2">
												</g>
												<g id="&lt;Group&gt;" style="opacity: .2">
												</g>
												<g id="&lt;Group&gt;" style="opacity: .5">
												</g>
												<g id="&lt;Group&gt;" style="opacity: .2">
												</g>
											</g>
										</g>
										<g id="&lt;Group&gt;">
											<g id="&lt;Group&gt;" style="opacity: .5">
											</g>
											<g id="&lt;Group&gt;" style="opacity: .9">
											</g>
											<g id="&lt;Group&gt;">
												<g id="&lt;Group&gt;" style="opacity: .5">
												</g>
												<g id="&lt;Group&gt;" style="opacity: .9">
												</g>
												<g id="&lt;Group&gt;" style="opacity: .3">
												</g>
												<g id="&lt;Group&gt;" style="opacity: .3">
												</g>
												<g id="&lt;Group&gt;" style="opacity: .3">
												</g>
											</g>
										</g>
										<g id="&lt;Group&gt;">
											<g id="&lt;Group&gt;" style="opacity: .5">
											</g>
											<g id="&lt;Group&gt;" style="opacity: .5">
											</g>
											<g id="&lt;Group&gt;" style="opacity: .5">
											</g>
											<g id="&lt;Group&gt;" style="opacity: .9">
											</g>
											<g id="&lt;Group&gt;" style="opacity: .2">
											</g>
											<g id="&lt;Group&gt;" style="opacity: .2">
											</g>
											<g id="&lt;Group&gt;" style="opacity: .2">
											</g>
											<g id="&lt;Group&gt;" style="opacity: .2">
											</g>
											<g id="&lt;Group&gt;">
												<g id="&lt;Group&gt;" style="opacity: .5">
												</g>
												<g id="&lt;Group&gt;" style="opacity: .2">
												</g>
												<g id="&lt;Group&gt;" style="opacity: .2">
												</g>
												<g id="&lt;Group&gt;" style="opacity: .2">
												</g>
												<g id="&lt;Group&gt;" style="opacity: .5">
												</g>
												<g id="&lt;Group&gt;" style="opacity: .2">
												</g>
											</g>
										</g>
										<g id="big-planet" style="opacity: .9">
											<g id="&lt;Group&gt;">
												<g id="&lt;Group&gt;">
													<path id="&lt;Path&gt;" class="s0" d="m1212.5 1028.9c-160.9 245-456 347.9-723.6 275.2-15.7-4.2-31.2-9.1-46.6-14.6-50-17.6-98.6-41.6-144.8-72.2-129.3-85.7-218.8-209.1-263.7-346.2-9.1-28-16.4-56.4-21.8-85.3-13.3-71.1-15.1-144.4-4.7-216.9 2-13.7 4.3-27.5 7.2-41.2 16.5-79.5 48.1-157.4 95.3-229.4 1.3-1.9 2.7-3.9 4-5.9 25.1-37.3 53.4-71.4 84.3-101.8 217.3-215.1 561.9-256.2 826.9-80.7 8.3 5.6 16.5 11.3 24.5 17.2 44.1 32 83.1 68.7 116.8 108.9 21 24.9 39.9 51.1 56.7 78.5 3.4 5.5 6.7 11 9.9 16.6 25.8 44.7 46.1 92.1 60.7 141 12.7 42.5 21.2 86.1 25.3 130.1 13.5 145.1-20.3 295.6-106.4 426.7z"/>
													<path id="&lt;Path&gt;" class="s1" d="m1034.5 630.2c-122.7 80.7-285.1 96.8-421.2 41.8-194.4-78.5-317.5-282-499.5-379.6 25.1-37.3 53.4-71.4 84.3-101.8-0.4 13.6-0.6 27.2 2 37.7 6.7 26.7 18.3 53.3 33.6 76.2 36.4 56.8 89.6 100.3 141.8 142.7 130.6 106.1 277.4 217.9 445.2 210.8 102.9-4.3 200.8-55.5 272.7-129.6 58.5-60.3 100.7-134.7 129.6-213.9 3.4 5.5 6.7 11 9.9 16.6-23.5 120.7-95.9 231.6-198.4 299.1z"/>
													<path id="&lt;Path&gt;" class="s2" d="m1052.2 1057.9c-85.6 75.4-204.3 120.5-315.1 94.5-91.9-21.6-166.3-87.2-236.4-150.6-141.6-127.9-283.3-255.8-424.9-383.7-21-18.9-42.9-38.3-68.5-49.2 2-13.7 4.3-27.5 7.2-41.2 31 13.5 60.7 32.3 87 52.3 125 95.1 225.8 219 347.7 318.1 122 99.1 278 174.6 432.2 145.8 137.5-25.6 250-131.4 316.4-255 42.5-79 68.8-165.3 87.9-252.6 2.8-12.5 4.4-39 7.9-64.2 12.7 42.5 21.2 86.1 25.3 130.1-26.1 57.7-50 116.5-76.3 174-47.5 103.9-104.8 206.3-190.4 281.7z"/>
													<path id="&lt;Path&gt;" class="s3" d="m1166.3 236c-10.6 2.8-21.2 5.6-31.5 9.5-126.7 47.9-162.4 227-287.3 279.2-77.8 32.6-166.8 5.5-244.1-28.3-55.7-24.4-111-52.9-152.8-97.2-41.8-44.2-68.4-106.8-56.4-166.6 12-59.8 70.2-110.7 130.3-102-51.2-3.7-95.4 45.6-99.9 96.9-4.5 51.4 22 101.1 56.9 138.9 102.9 111.6 287.8 134.8 414.8 52 60.5-39.4 104.7-101.1 127.7-169.4 12.8-38.2 13.3-82.7 25.5-121.9 44.1 32 83.1 68.7 116.8 108.9z"/>
													<path id="&lt;Path&gt;" class="s4" d="m488.9 1304.1c-15.7-4.2-31.2-9.1-46.6-14.6-18.5-78.7-35.9-157.9-72.4-229.4-19.5-38.1-44.3-73.6-75.1-103.2-68.5-65.8-167-95.3-261-85.8-9.1-28-16.4-56.4-21.8-85.3 61.9-3.6 124.4 6.5 181.7 30.2 104 43 189 130.3 229.2 235.8 31.1 81.3 36.3 171 66 252.3z"/>
													<path id="&lt;Path&gt;" class="s5" d="m1318.9 602.2c-4.1-44-12.6-87.6-25.3-130.1-14.6-48.9-34.9-96.3-60.7-141-3.2-5.6-6.5-11.1-9.9-16.6-16.8-27.4-35.7-53.6-56.7-78.5-33.7-40.2-72.7-76.9-116.8-108.9-8-5.9-16.2-11.6-24.5-17.2-30.6-20.2-62.3-37.4-94.6-52 0.9 1.1 1.8 2.1 2.7 3.1 22.4 26.7 42.7 54.9 60.7 84.2 3.7 5.8 7.3 11.8 10.7 17.8 27.6 48 49.4 98.7 65.1 151.2 13.6 45.5 22.7 92.2 27 139.4 14.5 155.6-21.7 317-114 457.5-151.8 231.1-414.9 344.2-671.4 315 42.1 26.4 86 47.6 131.1 63.4 15.4 5.5 30.9 10.4 46.6 14.6 267.6 72.7 562.7-30.2 723.6-275.2 86.1-131.1 119.9-281.6 106.4-426.7z"/>
													<path id="&lt;Path&gt;" class="s6" d="m1318.9 602.2c-4.1-44-12.6-87.6-25.3-130.1-14.6-48.9-34.9-96.3-60.7-141-3.2-5.6-6.5-11.1-9.9-16.6-16.8-27.4-35.7-53.6-56.7-78.5-27.7-33.1-59-63.7-93.8-91.4 24.5 21.7 47.1 45 67.7 69.6 21 24.8 39.9 51.1 56.7 78.5 3.4 5.4 6.7 11 9.9 16.6 25.8 44.7 46.1 92.1 60.7 141 12.7 42.4 21.2 86 25.3 130.1 13.5 145.1-20.3 295.6-106.4 426.6-160.9 245-456 348-723.6 275.2-15.7-4.2-31.2-9-46.6-14.5-31-10.9-61.4-24.4-91.1-40.3-4.6-0.4-9.3-0.8-13.9-1.3 42.1 26.4 86 47.6 131.1 63.4 15.4 5.5 30.9 10.4 46.6 14.6 267.6 72.7 562.7-30.2 723.6-275.2 86.1-131.1 119.9-281.6 106.4-426.7z"/>
													<g id="&lt;Group&gt;" style="opacity: .2">
														<path id="&lt;Path&gt;" class="s7" d="m228.6 266.5c-90.7 103.3-145.1 238-151.8 375.5-4.7 96.5 16.2 199.3 81.8 270.1 65.5 70.8 183 97.4 261 40.7 53.5-38.8 78.3-105.4 118.8-157.8 70.1-90.7 185.8-136.7 256.5-227 65.3-83.3 83.8-201.3 47.2-300.8-36.8-100-153.8-214.1-268-200.4-128.3 15.4-262.1 104.8-345.5 199.7z"/>
													</g>
													<g id="&lt;Group&gt;" style="opacity: .2">
														<path id="&lt;Path&gt;" class="s7" d="m300.1 243.1c-60.8 51.5-103.5 124.1-119 202.3-10.9 55-7.7 115.7 23.9 162 31.6 46.2 96.7 71.5 146.3 45.8 34-17.7 53.8-53.8 81.5-80.3 48-46.1 118.2-62.5 166.5-108.2 44.5-42.2 65.2-108.3 52.6-168.5-12.6-60.5-69.9-136-136.6-138-74.9-2.1-159.2 37.6-215.2 84.9z"/>
													</g>
													<path id="&lt;Path&gt;" class="s7" d="m404.6 535.3c-22.4 24.5-55 31.2-72.5 14.9-17.6-16.3-13.7-49.4 8.8-73.9 22.5-24.5 55-31.2 72.6-14.9 17.6 16.3 13.6 49.4-8.9 73.9z"/>
													<path id="&lt;Path&gt;" class="s7" d="m435.5 336.2c-48.9 53.3-119.5 67.8-157.8 32.4-38.2-35.4-29.6-107.3 19.3-160.6 48.9-53.2 119.5-67.7 157.8-32.3 38.2 35.4 29.6 107.3-19.3 160.5z"/>
												</g>
											</g>
										</g>
										<g id="&lt;Group&gt;">
											<g id="&lt;Group&gt;">
											</g>
											<g id="&lt;Group&gt;">
											</g>
										</g>
										<g id="&lt;Group&gt;">
											<g id="&lt;Group&gt;">
											</g>
											<g id="&lt;Group&gt;">
											</g>
											<g id="&lt;Group&gt;">
											</g>
										</g>
										<g id="&lt;Group&gt;">
											<g id="&lt;Group&gt;">
											</g>
										</g>
										<g id="&lt;Group&gt;">
										</g>
										<g id="&lt;Group&gt;">
										</g>
									</g>
								</g>
							</g>
						</g>
					</g>
				</g>
			</g>
		</g>
	</g>
</svg>