<svg version="1.2" xmlns="http://www.w3.org/2000/svg" viewBox="0 0 4515 2100" width="4515" height="2100">
	<title>stars-svg</title>
	<defs>
		<clipPath clipPathUnits="userSpaceOnUse" id="cp1">
			<path d="m4514.96 2100.08h-4515v-2100h4515z"/>
		</clipPath>
	</defs>
	<style>
		.s0 { fill: #aff1ff } 
		.s1 { fill: #76ffff } 
	</style>
	<g id="_Artboards_">
	</g>
	<g id="Layer 1">
		<g id="Clip-Path: Clip-Path: Clip-Path: Clip-Path: Clip-Path: &lt;Clip Group&gt;" clip-path="url(#cp1)">
			<g id="Clip-Path: Clip-Path: Clip-Path: Clip-Path: &lt;Clip Group&gt;">
				<g id="Clip-Path: Clip-Path: Clip-Path: &lt;Clip Group&gt;">
					<g id="Clip-Path: Clip-Path: &lt;Clip Group&gt;">
						<g id="Clip-Path: &lt;Clip Group&gt;">
							<g id="&lt;Clip Group&gt;">
								<g id="&lt;Group&gt;">
									<g id="&lt;Group&gt;">
										<g id="&lt;Group&gt;">
											<g id="&lt;Group&gt;" style="opacity: .1">
											</g>
											<g id="&lt;Group&gt;" style="opacity: .1">
											</g>
											<g id="&lt;Group&gt;" style="opacity: .1">
											</g>
										</g>
										<g id="&lt;Group&gt;" style="opacity: .3">
											<path id="&lt;Path&gt;" class="s0" d="m587.6 463.4c0 3.7-3 6.6-6.6 6.6-3.7 0-6.6-2.9-6.6-6.6 0-3.7 2.9-6.6 6.6-6.6 3.6 0 6.6 2.9 6.6 6.6z"/>
										</g>
										<g id="&lt;Group&gt;" style="opacity: .3">
											<path id="&lt;Path&gt;" class="s0" d="m1172.1 105.3c0 3.6-3 6.6-6.6 6.6-3.7 0-6.6-3-6.6-6.6 0-3.7 2.9-6.7 6.6-6.7 3.6 0 6.6 3 6.6 6.7z"/>
										</g>
										<g id="&lt;Group&gt;" style="opacity: .3">
											<path id="&lt;Path&gt;" class="s0" d="m1057.2 62.8c0 3.7-2.9 6.7-6.6 6.7-3.6 0-6.6-3-6.6-6.7 0-3.6 3-6.6 6.6-6.6 3.7 0 6.6 3 6.6 6.6z"/>
										</g>
										<g id="&lt;Group&gt;" style="opacity: .5">
											<path id="&lt;Path&gt;" class="s0" d="m3352.1 76.1c0 5.8-4.7 10.6-10.5 10.6-5.9 0-10.6-4.8-10.6-10.6 0-5.9 4.7-10.6 10.6-10.6 5.8 0 10.5 4.7 10.5 10.6z"/>
										</g>
										<g id="&lt;Group&gt;" style="opacity: .5">
											<path id="&lt;Path&gt;" class="s0" d="m3147.9 69c0 5.9-4.7 10.6-10.5 10.6-5.9 0-10.6-4.7-10.6-10.6 0-5.8 4.7-10.6 10.6-10.6 5.8 0 10.5 4.8 10.5 10.6z"/>
										</g>
										<g id="&lt;Group&gt;">
											<g id="&lt;Group&gt;" style="opacity: .8">
											</g>
											<g id="&lt;Group&gt;" style="opacity: .5">
												<path id="&lt;Path&gt;" class="s0" d="m451.3 426.1c0 3.9-3.2 7-7.1 7-3.9 0-7-3.1-7-7 0-3.9 3.1-7.1 7-7.1 3.9 0 7.1 3.2 7.1 7.1z"/>
											</g>
											<g id="&lt;Group&gt;">
												<g id="&lt;Group&gt;" style="opacity: .5">
													<path id="&lt;Path&gt;" class="s0" d="m472.4 153.9c0 9.7-7.9 17.6-17.6 17.6-9.7 0-17.6-7.9-17.6-17.6 0-9.8 7.9-17.7 17.6-17.7 9.7 0 17.6 7.9 17.6 17.7z"/>
												</g>
												<g id="&lt;Group&gt;" style="opacity: .5">
													<path id="&lt;Path&gt;" class="s0" d="m430.1 259.9c0 4.9-3.9 8.9-8.8 8.9-4.8 0-8.8-4-8.8-8.9 0-4.9 4-8.8 8.8-8.8 4.9 0 8.8 3.9 8.8 8.8z"/>
												</g>
												<g id="&lt;Group&gt;" style="opacity: .5">
													<path id="&lt;Path&gt;" class="s0" d="m194.3 104.4c0 4.9-4 8.8-8.8 8.8-4.9 0-8.8-3.9-8.8-8.8 0-4.9 3.9-8.9 8.8-8.9 4.8 0 8.8 4 8.8 8.9z"/>
												</g>
												<g id="&lt;Group&gt;" style="opacity: .9">
													<path id="&lt;Path&gt;" class="s0" d="m340.4 214c0 4.8-4 8.8-8.8 8.8-4.9 0-8.8-4-8.8-8.8 0-4.9 3.9-8.9 8.8-8.9 4.8 0 8.8 4 8.8 8.9z"/>
												</g>
												<g id="&lt;Group&gt;" style="opacity: .2">
													<path id="&lt;Path&gt;" class="s0" d="m197.8 263.5c0 3.9-3.2 7-7.1 7-3.8 0-7-3.1-7-7 0-3.9 3.2-7.1 7-7.1 3.9 0 7.1 3.2 7.1 7.1z"/>
												</g>
												<g id="&lt;Group&gt;" style="opacity: .2">
													<path id="&lt;Path&gt;" class="s0" d="m393.2 166.2c0 3-2.4 5.3-5.3 5.3-2.9 0-5.3-2.3-5.3-5.3 0-2.9 2.4-5.3 5.3-5.3 2.9 0 5.3 2.4 5.3 5.3z"/>
												</g>
												<g id="&lt;Group&gt;" style="opacity: .2">
													<path id="&lt;Path&gt;" class="s0" d="m363.2 210.4c0 3-2.3 5.3-5.2 5.3-3 0-5.3-2.3-5.3-5.3 0-2.9 2.3-5.3 5.3-5.3 2.9 0 5.2 2.4 5.2 5.3z"/>
												</g>
												<g id="&lt;Group&gt;" style="opacity: .2">
													<path id="&lt;Path&gt;" class="s0" d="m336.8 150.3c0 3-2.3 5.3-5.2 5.3-3 0-5.3-2.3-5.3-5.3 0-2.9 2.3-5.3 5.3-5.3 2.9 0 5.2 2.4 5.2 5.3z"/>
												</g>
												<g id="&lt;Group&gt;">
													<g id="&lt;Group&gt;" style="opacity: .5">
														<path id="&lt;Path&gt;" class="s0" d="m76.3 431.4c0 4.9-3.9 8.8-8.8 8.8-4.8 0-8.8-3.9-8.8-8.8 0-4.9 4-8.9 8.8-8.9 4.9 0 8.8 4 8.8 8.9z"/>
													</g>
													<g id="&lt;Group&gt;" style="opacity: .2">
														<path id="&lt;Path&gt;" class="s0" d="m109.8 223.7c0 2.9-2.4 5.3-5.3 5.3-2.9 0-5.3-2.4-5.3-5.3 0-2.9 2.4-5.3 5.3-5.3 2.9 0 5.3 2.4 5.3 5.3z"/>
													</g>
													<g id="&lt;Group&gt;" style="opacity: .2">
														<path id="&lt;Path&gt;" class="s0" d="m82.5 317.4c0 2.9-2.4 5.3-5.3 5.3-2.9 0-5.3-2.4-5.3-5.3 0-3 2.4-5.3 5.3-5.3 2.9 0 5.3 2.3 5.3 5.3z"/>
													</g>
													<g id="&lt;Group&gt;" style="opacity: .2">
														<path id="&lt;Path&gt;" class="s0" d="m115.9 290.9c0 2.9-2.3 5.3-5.3 5.3-2.9 0-5.2-2.4-5.2-5.3 0-3 2.3-5.3 5.2-5.3 3 0 5.3 2.3 5.3 5.3z"/>
													</g>
													<g id="&lt;Group&gt;" style="opacity: .5">
														<path id="&lt;Path&gt;" class="s0" d="m83.4 69c0 3.9-3.2 7.1-7.1 7.1-3.9 0-7-3.2-7-7.1 0-3.9 3.1-7.1 7-7.1 3.9 0 7.1 3.2 7.1 7.1z"/>
													</g>
													<g id="&lt;Group&gt;" style="opacity: .2">
														<path id="&lt;Path&gt;" class="s0" d="m141.5 143.3c0 3.9-3.2 7-7.1 7-3.9 0-7-3.1-7-7 0-3.9 3.1-7.1 7-7.1 3.9 0 7.1 3.2 7.1 7.1z"/>
													</g>
												</g>
											</g>
											<g id="&lt;Group&gt;">
												<g id="&lt;Group&gt;" style="opacity: .9">
													<path id="&lt;Path&gt;" class="s0" d="m1016.4 1072.8c0 4.8-4 8.8-8.8 8.8-4.9 0-8.8-4-8.8-8.8 0-4.9 3.9-8.9 8.8-8.9 4.8 0 8.8 4 8.8 8.9z"/>
												</g>
												<g id="&lt;Group&gt;" style="opacity: .9">
													<path id="&lt;Path&gt;" class="s0" d="m1896.4 130.9c0 4.9-3.9 8.8-8.8 8.8-4.9 0-8.8-3.9-8.8-8.8 0-4.9 3.9-8.9 8.8-8.9 4.9 0 8.8 4 8.8 8.9z"/>
												</g>
												<g id="&lt;Group&gt;" style="opacity: .9">
													<path id="&lt;Path&gt;" class="s0" d="m1628.9 95.5c0 4.9-4 8.9-8.8 8.9-4.9 0-8.9-4-8.9-8.9 0-4.8 4-8.8 8.9-8.8 4.8 0 8.8 4 8.8 8.8z"/>
												</g>
												<g id="&lt;Group&gt;" style="opacity: .9">
													<path id="&lt;Path&gt;" class="s0" d="m1377.1 620.5c0 4.9-3.9 8.9-8.8 8.9-4.8 0-8.8-4-8.8-8.9 0-4.9 4-8.8 8.8-8.8 4.9 0 8.8 3.9 8.8 8.8z"/>
												</g>
												<g id="&lt;Group&gt;" style="opacity: .3">
													<path id="&lt;Path&gt;" class="s0" d="m1367.5 174.2c0 3.7-3 6.6-6.6 6.6-3.7 0-6.6-2.9-6.6-6.6 0-3.7 2.9-6.6 6.6-6.6 3.6 0 6.6 2.9 6.6 6.6z"/>
												</g>
												<g id="&lt;Group&gt;" style="opacity: .3">
													<path id="&lt;Path&gt;" class="s0" d="m1378 1200.1c0 3.6-2.9 6.6-6.6 6.6-3.6 0-6.6-3-6.6-6.6 0-3.7 3-6.7 6.6-6.7 3.7 0 6.6 3 6.6 6.7z"/>
												</g>
												<g id="&lt;Group&gt;" style="opacity: .3">
													<path id="&lt;Path&gt;" class="s0" d="m1257 988.6c0 3.7-3 6.7-6.6 6.7-3.6 0-6.6-3-6.6-6.7 0-3.6 3-6.6 6.6-6.6 3.6 0 6.6 3 6.6 6.6z"/>
												</g>
												<g id="&lt;Group&gt;" style="opacity: .3">
													<path id="&lt;Path&gt;" class="s0" d="m1190.1 1145.9c0 3.7-2.9 6.7-6.6 6.7-3.6 0-6.6-3-6.6-6.7 0-3.6 3-6.6 6.6-6.6 3.7 0 6.6 3 6.6 6.6z"/>
												</g>
												<g id="&lt;Group&gt;" style="opacity: .3">
													<path id="&lt;Path&gt;" class="s0" d="m605 526.1c0 3.6-2.9 6.6-6.6 6.6-3.6 0-6.6-3-6.6-6.6 0-3.7 3-6.7 6.6-6.7 3.7 0 6.6 3 6.6 6.7z"/>
												</g>
												<g id="&lt;Group&gt;">
													<g id="&lt;Group&gt;" style="opacity: .5">
														<path id="&lt;Path&gt;" class="s0" d="m1049.7 694.8c0 4.8-3.9 8.8-8.8 8.8-4.8 0-8.8-4-8.8-8.8 0-4.9 4-8.9 8.8-8.9 4.9 0 8.8 4 8.8 8.9z"/>
													</g>
													<g id="&lt;Group&gt;" style="opacity: .9">
														<path id="&lt;Path&gt;" class="s0" d="m361.7 389.6c0 4.9-4 8.8-8.8 8.8-4.9 0-8.8-3.9-8.8-8.8 0-4.9 3.9-8.8 8.8-8.8 4.8 0 8.8 3.9 8.8 8.8z"/>
													</g>
													<g id="&lt;Group&gt;">
														<g id="&lt;Group&gt;" style="opacity: .5">
															<path id="&lt;Path&gt;" class="s0" d="m977.6 777.8c0 4.9-4 8.9-8.8 8.9-4.9 0-8.8-4-8.8-8.9 0-4.8 3.9-8.8 8.8-8.8 4.8 0 8.8 4 8.8 8.8z"/>
														</g>
														<g id="&lt;Group&gt;" style="opacity: .9">
															<path id="&lt;Path&gt;" class="s0" d="m1180 875.1c0 4.8-3.9 8.8-8.8 8.8-4.9 0-8.8-4-8.8-8.8 0-4.9 3.9-8.9 8.8-8.9 4.9 0 8.8 4 8.8 8.9z"/>
														</g>
														<g id="&lt;Group&gt;" style="opacity: .3">
															<path id="&lt;Path&gt;" class="s0" d="m385.5 816.8c0 3.7-3 6.6-6.6 6.6-3.7 0-6.6-2.9-6.6-6.6 0-3.7 2.9-6.6 6.6-6.6 3.6 0 6.6 2.9 6.6 6.6z"/>
														</g>
														<g id="&lt;Group&gt;" style="opacity: .3">
															<path id="&lt;Path&gt;" class="s0" d="m1114 854.3c0 3.6-3 6.6-6.6 6.6-3.7 0-6.6-3-6.6-6.6 0-3.7 2.9-6.6 6.6-6.6 3.6 0 6.6 2.9 6.6 6.6z"/>
														</g>
														<g id="&lt;Group&gt;" style="opacity: .3">
															<path id="&lt;Path&gt;" class="s0" d="m834.9 786.9c0 3.7-2.9 6.7-6.6 6.7-3.6 0-6.6-3-6.6-6.7 0-3.6 3-6.6 6.6-6.6 3.7 0 6.6 3 6.6 6.6z"/>
														</g>
													</g>
												</g>
												<g id="&lt;Group&gt;">
													<g id="&lt;Group&gt;" style="opacity: .5">
														<path id="&lt;Path&gt;" class="s0" d="m2572.4 833.5c0.3-4.9 4.5-8.5 9.4-8.2 4.8 0.4 8.5 4.6 8.1 9.5-0.3 4.9-4.6 8.5-9.4 8.1-4.9-0.3-8.5-4.6-8.1-9.4z"/>
													</g>
													<g id="&lt;Group&gt;" style="opacity: .9">
														<path id="&lt;Path&gt;" class="s0" d="m2499.3 819.2c0.3-4.9 4.6-8.6 9.4-8.2 4.9 0.4 8.5 4.6 8.1 9.5-0.3 4.8-4.5 8.5-9.4 8.1-4.8-0.3-8.5-4.6-8.1-9.4z"/>
													</g>
													<g id="&lt;Group&gt;">
														<g id="&lt;Group&gt;" style="opacity: .5">
															<path id="&lt;Path&gt;" class="s0" d="m2650.5 756c0.3-4.9 4.5-8.5 9.4-8.2 4.8 0.4 8.5 4.6 8.1 9.5-0.3 4.9-4.6 8.5-9.4 8.2-4.9-0.4-8.5-4.6-8.1-9.5z"/>
														</g>
														<g id="&lt;Group&gt;" style="opacity: .9">
															<path id="&lt;Path&gt;" class="s0" d="m2455.8 644c0.3-4.9 4.5-8.5 9.4-8.2 4.8 0.4 8.5 4.6 8.1 9.5-0.3 4.9-4.6 8.5-9.4 8.1-4.9-0.3-8.5-4.6-8.1-9.4z"/>
														</g>
														<g id="&lt;Group&gt;" style="opacity: .3">
															<path id="&lt;Path&gt;" class="s0" d="m2595.3 743.9c0.3-3.6 3.5-6.4 7.1-6.1 3.6 0.3 6.4 3.4 6.1 7.1-0.3 3.6-3.5 6.4-7.1 6.1-3.6-0.3-6.4-3.4-6.1-7.1z"/>
														</g>
														<g id="&lt;Group&gt;" style="opacity: .3">
															<path id="&lt;Path&gt;" class="s0" d="m2520.1 669.6c0.2-3.6 3.4-6.4 7-6.1 3.7 0.3 6.4 3.4 6.1 7.1-0.2 3.6-3.4 6.4-7 6.1-3.7-0.3-6.4-3.4-6.1-7.1z"/>
														</g>
														<g id="&lt;Group&gt;" style="opacity: .3">
															<path id="&lt;Path&gt;" class="s0" d="m2498.3 760.6c0.3-3.7 3.5-6.4 7.1-6.1 3.6 0.2 6.4 3.4 6.1 7.1-0.3 3.6-3.4 6.4-7.1 6.1-3.6-0.3-6.3-3.5-6.1-7.1z"/>
														</g>
													</g>
												</g>
												<g id="&lt;Group&gt;">
													<g id="&lt;Group&gt;" style="opacity: .5">
														<path id="&lt;Path&gt;" class="s0" d="m3025.2 1655.7c0.3-4.9 4.5-8.6 9.4-8.2 4.8 0.4 8.5 4.6 8.1 9.5-0.3 4.8-4.6 8.5-9.4 8.1-4.9-0.3-8.5-4.6-8.1-9.4z"/>
													</g>
													<g id="&lt;Group&gt;" style="opacity: .9">
														<path id="&lt;Path&gt;" class="s0" d="m3430.1 1853.3c0.3-4.8 4.6-8.5 9.4-8.1 4.9 0.3 8.5 4.6 8.1 9.4-0.3 4.9-4.5 8.6-9.4 8.2-4.8-0.4-8.5-4.6-8.1-9.5z"/>
													</g>
													<g id="&lt;Group&gt;">
														<g id="&lt;Group&gt;" style="opacity: .5">
															<path id="&lt;Path&gt;" class="s0" d="m3277.3 1528.2c0.3-4.9 4.5-8.6 9.4-8.2 4.8 0.4 8.5 4.6 8.1 9.5-0.3 4.8-4.6 8.5-9.4 8.1-4.9-0.3-8.5-4.6-8.1-9.4z"/>
														</g>
														<g id="&lt;Group&gt;" style="opacity: .9">
															<path id="&lt;Path&gt;" class="s0" d="m3348.6 640.2c0.3-4.9 4.5-8.6 9.4-8.2 4.8 0.4 8.5 4.6 8.1 9.5-0.3 4.8-4.6 8.5-9.4 8.1-4.9-0.3-8.5-4.6-8.1-9.4z"/>
														</g>
														<g id="&lt;Group&gt;" style="opacity: .3">
															<path id="&lt;Path&gt;" class="s0" d="m2392.1 978.1c0.3-3.7 3.5-6.4 7.1-6.1 3.6 0.2 6.4 3.4 6.1 7.1-0.3 3.6-3.5 6.4-7.1 6.1-3.6-0.3-6.4-3.5-6.1-7.1z"/>
														</g>
														<g id="&lt;Group&gt;" style="opacity: .3">
															<path id="&lt;Path&gt;" class="s0" d="m2708.9 1809.8c0.2-3.7 3.4-6.4 7-6.1 3.7 0.2 6.4 3.4 6.1 7.1-0.2 3.6-3.4 6.4-7 6.1-3.7-0.3-6.4-3.5-6.1-7.1z"/>
														</g>
														<g id="&lt;Group&gt;" style="opacity: .3">
															<path id="&lt;Path&gt;" class="s0" d="m2875.1 1586.8c0.3-3.7 3.5-6.4 7.1-6.1 3.6 0.2 6.4 3.4 6.1 7.1-0.3 3.6-3.4 6.3-7.1 6.1-3.6-0.3-6.3-3.5-6.1-7.1z"/>
														</g>
													</g>
												</g>
												<g id="&lt;Group&gt;" style="opacity: .5">
													<path id="&lt;Path&gt;" class="s0" d="m1256.6 174.2c0 5.8-4.8 10.6-10.6 10.6-5.8 0-10.6-4.8-10.6-10.6 0-5.9 4.8-10.6 10.6-10.6 5.8 0 10.6 4.7 10.6 10.6z"/>
												</g>
												<g id="&lt;Group&gt;" style="opacity: .5">
													<path id="&lt;Path&gt;" class="s0" d="m2584.7 245.8c0 5.8-4.8 10.6-10.6 10.6-5.8 0-10.6-4.8-10.6-10.6 0-5.9 4.8-10.6 10.6-10.6 5.8 0 10.6 4.7 10.6 10.6z"/>
												</g>
												<g id="&lt;Group&gt;" style="opacity: .5">
													<path id="&lt;Path&gt;" class="s0" d="m2591.7 83.2c0 5.8-4.7 10.6-10.6 10.6-5.8 0-10.5-4.8-10.5-10.6 0-5.9 4.7-10.6 10.5-10.6 5.9 0 10.6 4.7 10.6 10.6z"/>
												</g>
												<g id="&lt;Group&gt;">
													<g id="&lt;Group&gt;" style="opacity: .9">
														<path id="&lt;Path&gt;" class="s0" d="m1410.6 267.9c0 4.9-4 8.8-8.8 8.8-4.9 0-8.8-3.9-8.8-8.8 0-4.9 3.9-8.9 8.8-8.9 4.8 0 8.8 4 8.8 8.9z"/>
													</g>
													<g id="&lt;Group&gt;" style="opacity: .9">
														<path id="&lt;Path&gt;" class="s0" d="m1225.8 492.4c0 4.8-4 8.8-8.8 8.8-4.9 0-8.8-4-8.8-8.8 0-4.9 3.9-8.9 8.8-8.9 4.8 0 8.8 4 8.8 8.9z"/>
													</g>
													<g id="&lt;Group&gt;" style="opacity: .9">
														<path id="&lt;Path&gt;" class="s0" d="m1376.3 320c0 4.9-4 8.9-8.8 8.9-4.9 0-8.8-4-8.8-8.9 0-4.9 3.9-8.8 8.8-8.8 4.8 0 8.8 3.9 8.8 8.8z"/>
													</g>
													<g id="&lt;Group&gt;" style="opacity: .3">
														<path id="&lt;Path&gt;" class="s0" d="m1253.9 288.2c0 3.7-2.9 6.6-6.6 6.6-3.6 0-6.6-2.9-6.6-6.6 0-3.7 3-6.6 6.6-6.6 3.7 0 6.6 2.9 6.6 6.6z"/>
													</g>
													<g id="&lt;Group&gt;" style="opacity: .5">
														<path id="&lt;Path&gt;" class="s0" d="m72.6 950.3c0 5.9-4.8 10.6-10.6 10.6-5.8 0-10.6-4.7-10.6-10.6 0-5.9 4.8-10.6 10.6-10.6 5.8 0 10.6 4.7 10.6 10.6z"/>
													</g>
													<g id="&lt;Group&gt;" style="opacity: .5">
														<path id="&lt;Path&gt;" class="s0" d="m622.7 710.9c0 5.9-4.7 10.6-10.5 10.6-5.8 0-10.6-4.7-10.6-10.6 0-5.8 4.8-10.6 10.6-10.6 5.8 0 10.5 4.8 10.5 10.6z"/>
													</g>
												</g>
												<g id="&lt;Group&gt;">
													<g id="&lt;Group&gt;" style="opacity: .9">
														<path id="&lt;Path&gt;" class="s0" d="m2371.7 84.9c0 4.9-4 8.9-8.8 8.9-4.9 0-8.8-4-8.8-8.9 0-4.9 3.9-8.8 8.8-8.8 4.8 0 8.8 3.9 8.8 8.8z"/>
													</g>
													<g id="&lt;Group&gt;" style="opacity: .9">
														<path id="&lt;Path&gt;" class="s0" d="m2186.8 309.4c0 4.9-3.9 8.9-8.8 8.9-4.8 0-8.8-4-8.8-8.9 0-4.9 4-8.8 8.8-8.8 4.9 0 8.8 3.9 8.8 8.8z"/>
													</g>
													<g id="&lt;Group&gt;" style="opacity: .9">
														<path id="&lt;Path&gt;" class="s0" d="m2337.3 137.1c0 4.9-3.9 8.8-8.8 8.8-4.8 0-8.8-3.9-8.8-8.8 0-4.9 4-8.9 8.8-8.9 4.9 0 8.8 4 8.8 8.9z"/>
													</g>
													<g id="&lt;Group&gt;" style="opacity: .3">
														<path id="&lt;Path&gt;" class="s0" d="m2215 105.3c0 3.6-2.9 6.6-6.6 6.6-3.6 0-6.6-3-6.6-6.6 0-3.7 3-6.7 6.6-6.7 3.7 0 6.6 3 6.6 6.7z"/>
													</g>
													<g id="&lt;Group&gt;" style="opacity: .5">
														<path id="&lt;Path&gt;" class="s0" d="m2239.7 165.4c0 5.8-4.8 10.6-10.6 10.6-5.8 0-10.6-4.8-10.6-10.6 0-5.9 4.8-10.7 10.6-10.7 5.8 0 10.6 4.8 10.6 10.7z"/>
													</g>
													<g id="&lt;Group&gt;" style="opacity: .5">
														<path id="&lt;Path&gt;" class="s0" d="m2399.8 214c0 5.8-4.7 10.6-10.5 10.6-5.9 0-10.6-4.8-10.6-10.6 0-5.9 4.7-10.6 10.6-10.6 5.8 0 10.5 4.7 10.5 10.6z"/>
													</g>
												</g>
												<g id="&lt;Group&gt;">
													<g id="&lt;Group&gt;" style="opacity: .5">
														<path id="&lt;Path&gt;" class="s0" d="m1660.6 454.4c2.8-9.3 12.7-14.6 22-11.7 9.3 2.9 14.5 12.8 11.6 22.1-2.8 9.3-12.7 14.6-22 11.7-9.3-2.9-14.5-12.8-11.6-22.1z"/>
													</g>
													<g id="&lt;Group&gt;" style="opacity: .5">
														<path id="&lt;Path&gt;" class="s0" d="m1732 365.5c1.4-4.7 6.4-7.3 11-5.9 4.7 1.5 7.3 6.4 5.8 11.1-1.4 4.7-6.3 7.3-11 5.8-4.6-1.4-7.2-6.3-5.8-11z"/>
													</g>
													<g id="&lt;Group&gt;" style="opacity: .5">
														<path id="&lt;Path&gt;" class="s0" d="m1911.9 583.8c1.4-4.6 6.4-7.3 11-5.8 4.6 1.4 7.3 6.4 5.8 11-1.4 4.7-6.3 7.3-11 5.9-4.6-1.5-7.2-6.4-5.8-11.1z"/>
													</g>
													<g id="&lt;Group&gt;" style="opacity: .9">
														<path id="&lt;Path&gt;" class="s0" d="m1804.4 435.9c1.4-4.6 6.3-7.3 11-5.8 4.6 1.4 7.2 6.4 5.8 11-1.5 4.7-6.4 7.3-11 5.9-4.7-1.5-7.3-6.4-5.8-11.1z"/>
													</g>
													<g id="&lt;Group&gt;" style="opacity: .2">
														<path id="&lt;Path&gt;" class="s0" d="m1955.1 430.7c1.2-3.7 5.1-5.8 8.8-4.6 3.7 1.1 5.8 5.1 4.7 8.8-1.2 3.7-5.1 5.8-8.8 4.7-3.7-1.2-5.8-5.1-4.7-8.9z"/>
													</g>
													<g id="&lt;Group&gt;" style="opacity: .2">
														<path id="&lt;Path&gt;" class="s0" d="m1739.9 466c0.9-2.8 3.8-4.4 6.6-3.6 2.8 0.9 4.4 3.9 3.5 6.7-0.9 2.8-3.8 4.3-6.6 3.5-2.8-0.9-4.4-3.8-3.5-6.6z"/>
													</g>
													<g id="&lt;Group&gt;" style="opacity: .2">
														<path id="&lt;Path&gt;" class="s0" d="m1781.4 432.6c0.9-2.8 3.9-4.4 6.6-3.6 2.8 0.9 4.4 3.9 3.5 6.7-0.8 2.8-3.8 4.3-6.6 3.5-2.7-0.9-4.3-3.8-3.5-6.6z"/>
													</g>
													<g id="&lt;Group&gt;" style="opacity: .2">
														<path id="&lt;Path&gt;" class="s0" d="m1789.1 497.8c0.8-2.8 3.8-4.4 6.6-3.5 2.8 0.8 4.3 3.8 3.5 6.6-0.9 2.8-3.8 4.4-6.6 3.5-2.8-0.8-4.4-3.8-3.5-6.6z"/>
													</g>
													<g id="&lt;Group&gt;">
														<g id="&lt;Group&gt;" style="opacity: .5">
															<path id="&lt;Path&gt;" class="s0" d="m2120.4 306.1c1.4-4.7 6.3-7.3 11-5.9 4.6 1.5 7.2 6.4 5.8 11.1-1.4 4.7-6.3 7.3-11 5.8-4.6-1.4-7.2-6.3-5.8-11z"/>
														</g>
														<g id="&lt;Group&gt;" style="opacity: .2">
															<path id="&lt;Path&gt;" class="s0" d="m2027.6 494.7c0.9-2.8 3.8-4.3 6.6-3.5 2.8 0.9 4.3 3.9 3.5 6.7-0.9 2.8-3.8 4.3-6.6 3.5-2.8-0.9-4.4-3.9-3.5-6.7z"/>
														</g>
														<g id="&lt;Group&gt;" style="opacity: .2">
															<path id="&lt;Path&gt;" class="s0" d="m2081.1 413.2c0.9-2.8 3.8-4.3 6.6-3.5 2.8 0.9 4.4 3.9 3.5 6.7-0.9 2.8-3.8 4.3-6.6 3.5-2.8-0.9-4.4-3.9-3.5-6.7z"/>
														</g>
														<g id="&lt;Group&gt;" style="opacity: .2">
															<path id="&lt;Path&gt;" class="s0" d="m2041.4 428.7c0.8-2.8 3.8-4.4 6.6-3.5 2.8 0.9 4.3 3.8 3.5 6.6-0.9 2.8-3.8 4.4-6.6 3.5-2.8-0.8-4.4-3.8-3.5-6.6z"/>
														</g>
														<g id="&lt;Group&gt;" style="opacity: .5">
															<path id="&lt;Path&gt;" class="s0" d="m2007.5 650.4c1.2-3.8 5.1-5.9 8.8-4.7 3.8 1.1 5.8 5.1 4.7 8.8-1.1 3.7-5.1 5.8-8.8 4.7-3.7-1.2-5.8-5.1-4.7-8.8z"/>
														</g>
														<g id="&lt;Group&gt;" style="opacity: .2">
															<path id="&lt;Path&gt;" class="s0" d="m1973.8 562.2c1.1-3.7 5-5.8 8.8-4.6 3.7 1.1 5.8 5.1 4.6 8.8-1.1 3.7-5.1 5.8-8.8 4.7-3.7-1.2-5.8-5.1-4.6-8.9z"/>
														</g>
													</g>
												</g>
												<g id="&lt;Group&gt;">
													<g id="&lt;Group&gt;" style="opacity: .5">
														<path id="&lt;Path&gt;" class="s0" d="m2669.1 442c0 9.7-7.8 17.7-17.6 17.7-9.7 0-17.6-8-17.6-17.7 0-9.8 7.9-17.7 17.6-17.7 9.8 0 17.6 7.9 17.6 17.7z"/>
													</g>
													<g id="&lt;Group&gt;" style="opacity: .5">
														<path id="&lt;Path&gt;" class="s0" d="m2626.9 548c0 4.9-3.9 8.9-8.8 8.9-4.9 0-8.8-4-8.8-8.9 0-4.8 3.9-8.8 8.8-8.8 4.9 0 8.8 4 8.8 8.8z"/>
													</g>
													<g id="&lt;Group&gt;" style="opacity: .5">
														<path id="&lt;Path&gt;" class="s0" d="m2391 392.5c0 4.9-3.9 8.8-8.8 8.8-4.8 0-8.8-3.9-8.8-8.8 0-4.9 4-8.8 8.8-8.8 4.9 0 8.8 3.9 8.8 8.8z"/>
													</g>
													<g id="&lt;Group&gt;" style="opacity: .9">
														<path id="&lt;Path&gt;" class="s0" d="m2537.1 502.1c0 4.9-3.9 8.8-8.8 8.8-4.8 0-8.8-3.9-8.8-8.8 0-4.9 4-8.9 8.8-8.9 4.9 0 8.8 4 8.8 8.9z"/>
													</g>
													<g id="&lt;Group&gt;" style="opacity: .2">
														<path id="&lt;Path&gt;" class="s0" d="m2394.6 551.6c0 3.9-3.2 7.1-7.1 7.1-3.9 0-7-3.2-7-7.1 0-3.9 3.1-7.1 7-7.1 3.9 0 7.1 3.2 7.1 7.1z"/>
													</g>
													<g id="&lt;Group&gt;" style="opacity: .2">
														<path id="&lt;Path&gt;" class="s0" d="m2589.9 454.4c0 2.9-2.3 5.3-5.2 5.3-3 0-5.3-2.4-5.3-5.3 0-3 2.3-5.3 5.3-5.3 2.9 0 5.2 2.3 5.2 5.3z"/>
													</g>
													<g id="&lt;Group&gt;" style="opacity: .2">
														<path id="&lt;Path&gt;" class="s0" d="m2560 498.6c0 2.9-2.3 5.3-5.3 5.3-2.9 0-5.2-2.4-5.2-5.3 0-3 2.3-5.4 5.2-5.4 3 0 5.3 2.4 5.3 5.4z"/>
													</g>
													<g id="&lt;Group&gt;" style="opacity: .2">
														<path id="&lt;Path&gt;" class="s0" d="m2533.6 438.5c0 2.9-2.4 5.3-5.3 5.3-2.9 0-5.2-2.4-5.2-5.3 0-3 2.3-5.4 5.2-5.4 2.9 0 5.3 2.4 5.3 5.4z"/>
													</g>
													<g id="&lt;Group&gt;">
														<g id="&lt;Group&gt;" style="opacity: .5">
															<path id="&lt;Path&gt;" class="s0" d="m2273.1 719.5c0 4.9-3.9 8.8-8.8 8.8-4.9 0-8.8-3.9-8.8-8.8 0-4.9 3.9-8.8 8.8-8.8 4.9 0 8.8 3.9 8.8 8.8z"/>
														</g>
														<g id="&lt;Group&gt;" style="opacity: .2">
															<path id="&lt;Path&gt;" class="s0" d="m2306.5 511.8c0 2.9-2.3 5.3-5.2 5.3-3 0-5.3-2.4-5.3-5.3 0-2.9 2.3-5.3 5.3-5.3 2.9 0 5.2 2.4 5.2 5.3z"/>
														</g>
														<g id="&lt;Group&gt;" style="opacity: .2">
															<path id="&lt;Path&gt;" class="s0" d="m2279.3 605.5c0 2.9-2.4 5.3-5.3 5.3-2.9 0-5.3-2.4-5.3-5.3 0-2.9 2.4-5.3 5.3-5.3 2.9 0 5.3 2.4 5.3 5.3z"/>
														</g>
														<g id="&lt;Group&gt;" style="opacity: .2">
															<path id="&lt;Path&gt;" class="s0" d="m2312.7 579c0 2.9-2.4 5.3-5.3 5.3-2.9 0-5.3-2.4-5.3-5.3 0-2.9 2.4-5.3 5.3-5.3 2.9 0 5.3 2.4 5.3 5.3z"/>
														</g>
														<g id="&lt;Group&gt;" style="opacity: .5">
															<path id="&lt;Path&gt;" class="s0" d="m2280.1 357.1c0 3.9-3.1 7.1-7 7.1-3.9 0-7-3.2-7-7.1 0-3.9 3.1-7 7-7 3.9 0 7 3.1 7 7z"/>
														</g>
														<g id="&lt;Group&gt;" style="opacity: .2">
															<path id="&lt;Path&gt;" class="s0" d="m2338.2 431.4c0 3.9-3.1 7.1-7 7.1-3.9 0-7.1-3.2-7.1-7.1 0-3.9 3.2-7.1 7.1-7.1 3.9 0 7 3.2 7 7.1z"/>
														</g>
													</g>
												</g>
												<g id="&lt;Group&gt;">
													<g id="&lt;Group&gt;">
														<g id="&lt;Group&gt;" style="opacity: .5">
														</g>
														<g id="&lt;Group&gt;" style="opacity: .9">
														</g>
														<g id="&lt;Group&gt;">
															<g id="&lt;Group&gt;" style="opacity: .5">
															</g>
															<g id="&lt;Group&gt;" style="opacity: .9">
															</g>
															<g id="&lt;Group&gt;" style="opacity: .3">
															</g>
															<g id="&lt;Group&gt;" style="opacity: .3">
															</g>
															<g id="&lt;Group&gt;" style="opacity: .3">
															</g>
														</g>
													</g>
													<g id="&lt;Group&gt;">
														<g id="&lt;Group&gt;" style="opacity: .5">
															<path id="&lt;Path&gt;" class="s0" d="m4237.1 103.1c0 7.5-6.1 13.6-13.6 13.6-7.5 0-13.6-6.1-13.6-13.6 0-7.6 6.1-13.7 13.6-13.7 7.5 0 13.6 6.1 13.6 13.7z"/>
														</g>
														<g id="&lt;Group&gt;" style="opacity: .9">
															<path id="&lt;Path&gt;" class="s0" d="m4351.2 116.7c0 7.5-6.1 13.6-13.6 13.6-7.5 0-13.6-6.1-13.6-13.6 0-7.5 6.1-13.6 13.6-13.6 7.5 0 13.6 6.1 13.6 13.6z"/>
														</g>
														<g id="&lt;Group&gt;">
															<g id="&lt;Group&gt;" style="opacity: .5">
																<path id="&lt;Path&gt;" class="s0" d="m4125.6 231.3c0 7.6-6 13.7-13.6 13.7-7.5 0-13.5-6.1-13.5-13.7 0-7.5 6-13.6 13.5-13.6 7.6 0 13.6 6.1 13.6 13.6z"/>
															</g>
															<g id="&lt;Group&gt;" style="opacity: .9">
																<path id="&lt;Path&gt;" class="s0" d="m4438.2 381.4c0 7.6-6.1 13.7-13.6 13.7-7.5 0-13.6-6.1-13.6-13.7 0-7.5 6.1-13.6 13.6-13.6 7.5 0 13.6 6.1 13.6 13.6z"/>
															</g>
															<g id="&lt;Group&gt;" style="opacity: .3">
																<path id="&lt;Path&gt;" class="s0" d="m4211.9 243.6c0 5.7-4.5 10.2-10.2 10.2-5.6 0-10.2-4.5-10.2-10.2 0-5.6 4.6-10.2 10.2-10.2 5.7 0 10.2 4.6 10.2 10.2z"/>
															</g>
															<g id="&lt;Group&gt;" style="opacity: .3">
																<path id="&lt;Path&gt;" class="s0" d="m4336.3 349.4c0 5.6-4.6 10.2-10.2 10.2-5.7 0-10.2-4.6-10.2-10.2 0-5.7 4.5-10.3 10.2-10.3 5.6 0 10.2 4.6 10.2 10.3z"/>
															</g>
															<g id="&lt;Group&gt;" style="opacity: .3">
																<path id="&lt;Path&gt;" class="s0" d="m4359.4 206.8c0 5.6-4.6 10.2-10.2 10.2-5.7 0-10.2-4.6-10.2-10.2 0-5.7 4.5-10.3 10.2-10.3 5.6 0 10.2 4.6 10.2 10.3z"/>
															</g>
														</g>
													</g>
													<g id="&lt;Group&gt;" style="opacity: .5">
														<path id="&lt;Path&gt;" class="s0" d="m3816.8 69c0 5.9-4.7 10.6-10.5 10.6-5.9 0-10.6-4.7-10.6-10.6 0-5.8 4.7-10.6 10.6-10.6 5.8 0 10.5 4.8 10.5 10.6z"/>
													</g>
													<g id="&lt;Group&gt;">
														<g id="&lt;Group&gt;" style="opacity: .5">
														</g>
														<g id="&lt;Group&gt;" style="opacity: .5">
														</g>
														<g id="&lt;Group&gt;" style="opacity: .5">
														</g>
														<g id="&lt;Group&gt;" style="opacity: .9">
														</g>
														<g id="&lt;Group&gt;" style="opacity: .2">
														</g>
														<g id="&lt;Group&gt;" style="opacity: .2">
														</g>
														<g id="&lt;Group&gt;" style="opacity: .2">
														</g>
														<g id="&lt;Group&gt;" style="opacity: .2">
														</g>
														<g id="&lt;Group&gt;">
															<g id="&lt;Group&gt;" style="opacity: .5">
															</g>
															<g id="&lt;Group&gt;" style="opacity: .2">
															</g>
															<g id="&lt;Group&gt;" style="opacity: .2">
															</g>
															<g id="&lt;Group&gt;" style="opacity: .2">
															</g>
															<g id="&lt;Group&gt;" style="opacity: .5">
															</g>
															<g id="&lt;Group&gt;" style="opacity: .2">
															</g>
														</g>
													</g>
												</g>
											</g>
										</g>
									</g>
									<g id="&lt;Group&gt;">
										<g id="&lt;Group&gt;">
											<g id="&lt;Group&gt;" style="opacity: .5">
											</g>
											<g id="&lt;Group&gt;" style="opacity: .3">
											</g>
											<g id="&lt;Group&gt;" style="opacity: .2">
											</g>
											<g id="&lt;Group&gt;" style="opacity: .3">
											</g>
											<g id="&lt;Group&gt;" style="opacity: .3">
											</g>
											<g id="&lt;Group&gt;" style="opacity: .3">
												<path id="&lt;Path&gt;" class="s1" d="m501.7 378.9c-3.3-5.1-6.5-10.2-9.7-15.2-4-6.5-12-16.3-19-26.8 3.5-1.3 7.2-2.7 10.8-3.9 5.5 15.5 9.7 32.2 17.9 45.9z"/>
											</g>
											<g id="&lt;Group&gt;" style="opacity: .3">
											</g>
										</g>
									</g>
									<g id="&lt;Group&gt;">
										<g id="&lt;Group&gt;" style="opacity: .8">
										</g>
										<g id="&lt;Group&gt;">
										</g>
									</g>
									<g id="&lt;Group&gt;">
									</g>
									<g id="&lt;Group&gt;">
										<g id="&lt;Group&gt;" style="opacity: .5">
											<path id="&lt;Path&gt;" class="s0" d="m1678.3 616.8c0 9.7-7.8 17.7-17.6 17.7-9.7 0-17.6-8-17.6-17.7 0-9.8 7.9-17.7 17.6-17.7 9.8 0 17.6 7.9 17.6 17.7z"/>
										</g>
										<g id="&lt;Group&gt;" style="opacity: .5">
											<path id="&lt;Path&gt;" class="s0" d="m1636.1 722.8c0 4.9-3.9 8.9-8.8 8.9-4.9 0-8.8-4-8.8-8.9 0-4.8 3.9-8.8 8.8-8.8 4.9 0 8.8 4 8.8 8.8z"/>
										</g>
										<g id="&lt;Group&gt;" style="opacity: .5">
											<path id="&lt;Path&gt;" class="s0" d="m486.2 635.3c0 4.9-3.9 8.8-8.8 8.8-4.8 0-8.8-3.9-8.8-8.8 0-4.9 4-8.9 8.8-8.9 4.9 0 8.8 4 8.8 8.9z"/>
										</g>
										<g id="&lt;Group&gt;" style="opacity: .9">
											<path id="&lt;Path&gt;" class="s0" d="m1546.3 676.9c0 4.9-3.9 8.8-8.8 8.8-4.8 0-8.8-3.9-8.8-8.8 0-4.9 4-8.9 8.8-8.9 4.9 0 8.8 4 8.8 8.9z"/>
										</g>
										<g id="&lt;Group&gt;" style="opacity: .2">
											<path id="&lt;Path&gt;" class="s0" d="m1403.7 726.4c0 3.9-3.1 7-7 7-3.9 0-7-3.1-7-7 0-3.9 3.1-7.1 7-7.1 3.9 0 7 3.2 7 7.1z"/>
										</g>
										<g id="&lt;Group&gt;" style="opacity: .2">
											<path id="&lt;Path&gt;" class="s0" d="m1599.1 629.2c0 2.9-2.3 5.3-5.2 5.3-3 0-5.3-2.4-5.3-5.3 0-3 2.3-5.4 5.3-5.4 2.9 0 5.2 2.4 5.2 5.4z"/>
										</g>
										<g id="&lt;Group&gt;" style="opacity: .2">
											<path id="&lt;Path&gt;" class="s0" d="m1569.2 673.3c0 3-2.4 5.3-5.3 5.3-2.9 0-5.3-2.3-5.3-5.3 0-2.9 2.4-5.3 5.3-5.3 2.9 0 5.3 2.4 5.3 5.3z"/>
										</g>
										<g id="&lt;Group&gt;" style="opacity: .2">
											<path id="&lt;Path&gt;" class="s0" d="m1542.8 613.2c0 3-2.4 5.3-5.3 5.3-2.9 0-5.3-2.3-5.3-5.3 0-2.9 2.4-5.3 5.3-5.3 2.9 0 5.3 2.4 5.3 5.3z"/>
										</g>
										<g id="&lt;Group&gt;">
											<g id="&lt;Group&gt;" style="opacity: .5">
												<path id="&lt;Path&gt;" class="s0" d="m1282.3 894.3c0 4.9-3.9 8.8-8.8 8.8-4.9 0-8.8-3.9-8.8-8.8 0-4.9 3.9-8.8 8.8-8.8 4.9 0 8.8 3.9 8.8 8.8z"/>
											</g>
											<g id="&lt;Group&gt;" style="opacity: .2">
												<path id="&lt;Path&gt;" class="s0" d="m1315.7 686.6c0 2.9-2.3 5.3-5.2 5.3-3 0-5.3-2.4-5.3-5.3 0-2.9 2.3-5.3 5.3-5.3 2.9 0 5.2 2.4 5.2 5.3z"/>
											</g>
											<g id="&lt;Group&gt;" style="opacity: .2">
												<path id="&lt;Path&gt;" class="s0" d="m1288.5 780.3c0 2.9-2.4 5.3-5.3 5.3-2.9 0-5.3-2.4-5.3-5.3 0-2.9 2.4-5.3 5.3-5.3 2.9 0 5.3 2.4 5.3 5.3z"/>
											</g>
											<g id="&lt;Group&gt;" style="opacity: .2">
												<path id="&lt;Path&gt;" class="s0" d="m1321.9 753.8c0 2.9-2.4 5.3-5.3 5.3-2.9 0-5.3-2.4-5.3-5.3 0-3 2.4-5.3 5.3-5.3 2.9 0 5.3 2.3 5.3 5.3z"/>
											</g>
											<g id="&lt;Group&gt;" style="opacity: .5">
												<path id="&lt;Path&gt;" class="s0" d="m145.3 745.9c0 3.9-3.1 7.1-7 7.1-3.9 0-7-3.2-7-7.1 0-3.9 3.1-7 7-7 3.9 0 7 3.1 7 7z"/>
											</g>
											<g id="&lt;Group&gt;" style="opacity: .2">
												<path id="&lt;Path&gt;" class="s0" d="m1347.4 606.2c0 3.9-3.1 7-7 7-3.9 0-7.1-3.1-7.1-7 0-3.9 3.2-7.1 7.1-7.1 3.9 0 7 3.2 7 7.1z"/>
											</g>
										</g>
									</g>
									<g id="&lt;Group&gt;">
										<g id="&lt;Group&gt;" style="opacity: .5">
											<path id="&lt;Path&gt;" class="s0" d="m1545.1 980.5c0 4.9-4 8.9-8.8 8.9-4.9 0-8.8-4-8.8-8.9 0-4.8 3.9-8.8 8.8-8.8 4.8 0 8.8 4 8.8 8.8z"/>
										</g>
										<g id="&lt;Group&gt;" style="opacity: .9">
											<path id="&lt;Path&gt;" class="s0" d="m1619 989.4c0 4.9-4 8.8-8.8 8.8-4.9 0-8.8-3.9-8.8-8.8 0-4.9 3.9-8.9 8.8-8.9 4.8 0 8.8 4 8.8 8.9z"/>
										</g>
										<g id="&lt;Group&gt;">
											<g id="&lt;Group&gt;" style="opacity: .5">
												<path id="&lt;Path&gt;" class="s0" d="m1472.9 1063.6c0 4.9-4 8.9-8.8 8.9-4.9 0-8.8-4-8.8-8.9 0-4.9 3.9-8.8 8.8-8.8 4.8 0 8.8 3.9 8.8 8.8z"/>
											</g>
											<g id="&lt;Group&gt;" style="opacity: .9">
												<path id="&lt;Path&gt;" class="s0" d="m1675.3 1160.8c0 4.9-3.9 8.9-8.8 8.9-4.9 0-8.8-4-8.8-8.9 0-4.8 3.9-8.8 8.8-8.8 4.9 0 8.8 4 8.8 8.8z"/>
											</g>
											<g id="&lt;Group&gt;" style="opacity: .3">
												<path id="&lt;Path&gt;" class="s0" d="m1528.8 1071.6c0 3.6-3 6.6-6.6 6.6-3.7 0-6.6-3-6.6-6.6 0-3.7 2.9-6.7 6.6-6.7 3.6 0 6.6 3 6.6 6.7z"/>
											</g>
											<g id="&lt;Group&gt;" style="opacity: .3">
												<path id="&lt;Path&gt;" class="s0" d="m1609.3 1140.1c0 3.6-3 6.6-6.6 6.6-3.6 0-6.6-3-6.6-6.6 0-3.7 3-6.7 6.6-6.7 3.6 0 6.6 3 6.6 6.7z"/>
											</g>
											<g id="&lt;Group&gt;" style="opacity: .3">
												<path id="&lt;Path&gt;" class="s0" d="m1624.3 1047.7c0 3.7-3 6.6-6.6 6.6-3.7 0-6.6-2.9-6.6-6.6 0-3.6 2.9-6.6 6.6-6.6 3.6 0 6.6 3 6.6 6.6z"/>
											</g>
										</g>
									</g>
									<g id="&lt;Group&gt;">
										<g id="&lt;Group&gt;" style="opacity: .5">
										</g>
										<g id="&lt;Group&gt;" style="opacity: .5">
											<path id="&lt;Path&gt;" class="s0" d="m704.5 315.6c1.4-4.7 6.4-7.3 11-5.9 4.6 1.4 7.2 6.4 5.8 11-1.4 4.7-6.3 7.3-11 5.9-4.6-1.4-7.2-6.4-5.8-11z"/>
										</g>
										<g id="&lt;Group&gt;" style="opacity: .5">
											<path id="&lt;Path&gt;" class="s0" d="m884.4 533.9c1.4-4.7 6.3-7.3 11-5.9 4.6 1.5 7.2 6.4 5.8 11.1-1.4 4.6-6.3 7.3-11 5.8-4.6-1.4-7.2-6.4-5.8-11z"/>
										</g>
										<g id="&lt;Group&gt;" style="opacity: .9">
											<path id="&lt;Path&gt;" class="s0" d="m776.8 386c1.5-4.7 6.4-7.3 11-5.9 4.7 1.5 7.3 6.4 5.9 11.1-1.5 4.7-6.4 7.3-11 5.8-4.7-1.4-7.3-6.3-5.9-11z"/>
										</g>
										<g id="&lt;Group&gt;" style="opacity: .2">
											<path id="&lt;Path&gt;" class="s0" d="m927.6 380.8c1.2-3.7 5.1-5.8 8.8-4.7 3.7 1.2 5.8 5.1 4.7 8.8-1.2 3.8-5.1 5.9-8.8 4.7-3.7-1.1-5.8-5.1-4.7-8.8z"/>
										</g>
										<g id="&lt;Group&gt;" style="opacity: .2">
											<path id="&lt;Path&gt;" class="s0" d="m712.4 416c0.9-2.8 3.8-4.4 6.6-3.5 2.8 0.9 4.3 3.8 3.5 6.6-0.9 2.8-3.8 4.4-6.6 3.5-2.8-0.8-4.4-3.8-3.5-6.6z"/>
										</g>
										<g id="&lt;Group&gt;" style="opacity: .2">
											<path id="&lt;Path&gt;" class="s0" d="m753.9 382.6c0.9-2.8 3.8-4.4 6.6-3.5 2.8 0.9 4.4 3.8 3.5 6.6-0.8 2.8-3.8 4.4-6.6 3.5-2.8-0.8-4.3-3.8-3.5-6.6z"/>
										</g>
										<g id="&lt;Group&gt;" style="opacity: .2">
											<path id="&lt;Path&gt;" class="s0" d="m761.6 447.8c0.8-2.8 3.8-4.3 6.6-3.5 2.8 0.9 4.3 3.9 3.5 6.7-0.9 2.8-3.8 4.3-6.6 3.5-2.8-0.9-4.4-3.9-3.5-6.7z"/>
										</g>
										<g id="&lt;Group&gt;">
											<g id="&lt;Group&gt;" style="opacity: .5">
												<path id="&lt;Path&gt;" class="s0" d="m672.9 480.2c1.4-4.7 6.3-7.3 11-5.9 4.6 1.4 7.2 6.4 5.8 11-1.4 4.7-6.4 7.3-11 5.9-4.7-1.4-7.3-6.4-5.8-11z"/>
											</g>
											<g id="&lt;Group&gt;" style="opacity: .2">
												<path id="&lt;Path&gt;" class="s0" d="m985.1 418.8c0.8-2.8 3.8-4.4 6.6-3.5 2.8 0.8 4.3 3.8 3.5 6.6-0.9 2.8-3.8 4.4-6.6 3.5-2.8-0.8-4.4-3.8-3.5-6.6z"/>
											</g>
											<g id="&lt;Group&gt;" style="opacity: .2">
												<path id="&lt;Path&gt;" class="s0" d="m633.6 587.3c0.9-2.8 3.8-4.4 6.6-3.5 2.8 0.9 4.3 3.8 3.5 6.6-0.9 2.8-3.8 4.4-6.6 3.5-2.8-0.8-4.4-3.8-3.5-6.6z"/>
											</g>
											<g id="&lt;Group&gt;" style="opacity: .2">
												<path id="&lt;Path&gt;" class="s0" d="m1013.9 378.8c0.8-2.8 3.8-4.4 6.6-3.5 2.8 0.8 4.3 3.8 3.5 6.6-0.9 2.8-3.9 4.4-6.6 3.5-2.8-0.9-4.4-3.8-3.5-6.6z"/>
											</g>
											<g id="&lt;Group&gt;" style="opacity: .5">
												<path id="&lt;Path&gt;" class="s0" d="m980 600.4c1.2-3.7 5.1-5.8 8.8-4.7 3.7 1.2 5.8 5.1 4.7 8.9-1.2 3.7-5.1 5.8-8.8 4.7-3.7-1.2-5.8-5.2-4.7-8.9z"/>
											</g>
											<g id="&lt;Group&gt;" style="opacity: .2">
												<path id="&lt;Path&gt;" class="s0" d="m630.2 605.3c1.2-3.7 5.1-5.8 8.8-4.7 3.8 1.2 5.9 5.1 4.7 8.9-1.1 3.7-5.1 5.8-8.8 4.6-3.7-1.1-5.8-5.1-4.7-8.8z"/>
											</g>
										</g>
									</g>
									<g id="&lt;Group&gt;">
										<g id="&lt;Group&gt;" style="opacity: .9">
											<path id="&lt;Path&gt;" class="s0" d="m795.5 100.2c0 4.9-3.9 8.8-8.8 8.8-4.8 0-8.8-3.9-8.8-8.8 0-4.9 4-8.8 8.8-8.8 4.9 0 8.8 3.9 8.8 8.8z"/>
										</g>
										<g id="&lt;Group&gt;" style="opacity: .9">
											<path id="&lt;Path&gt;" class="s0" d="m610.7 324.7c0 4.9-3.9 8.8-8.8 8.8-4.9 0-8.8-3.9-8.8-8.8 0-4.9 3.9-8.9 8.8-8.9 4.9 0 8.8 4 8.8 8.9z"/>
										</g>
										<g id="&lt;Group&gt;" style="opacity: .9">
											<path id="&lt;Path&gt;" class="s0" d="m761.2 152.3c0 4.9-3.9 8.9-8.8 8.9-4.9 0-8.8-4-8.8-8.9 0-4.8 3.9-8.8 8.8-8.8 4.9 0 8.8 4 8.8 8.8z"/>
										</g>
										<g id="&lt;Group&gt;" style="opacity: .3">
											<path id="&lt;Path&gt;" class="s0" d="m638.9 120.5c0 3.7-3 6.7-6.6 6.7-3.7 0-6.6-3-6.6-6.7 0-3.6 2.9-6.6 6.6-6.6 3.6 0 6.6 3 6.6 6.6z"/>
										</g>
										<g id="&lt;Group&gt;" style="opacity: .5">
											<path id="&lt;Path&gt;" class="s0" d="m663.5 180.6c0 5.9-4.7 10.6-10.5 10.6-5.9 0-10.6-4.7-10.6-10.6 0-5.8 4.7-10.6 10.6-10.6 5.8 0 10.5 4.8 10.5 10.6z"/>
										</g>
										<g id="&lt;Group&gt;" style="opacity: .5">
											<path id="&lt;Path&gt;" class="s0" d="m823.7 229.2c0 5.9-4.7 10.6-10.6 10.6-5.8 0-10.5-4.7-10.5-10.6 0-5.8 4.7-10.6 10.5-10.6 5.9 0 10.6 4.8 10.6 10.6z"/>
										</g>
									</g>
									<g id="&lt;Group&gt;">
										<g id="&lt;Group&gt;" style="opacity: .9">
											<path id="&lt;Path&gt;" class="s0" d="m1956.7 761.7c0 4.9-3.9 8.8-8.8 8.8-4.8 0-8.8-3.9-8.8-8.8 0-4.9 4-8.8 8.8-8.8 4.9 0 8.8 3.9 8.8 8.8z"/>
										</g>
										<g id="&lt;Group&gt;" style="opacity: .9">
											<path id="&lt;Path&gt;" class="s0" d="m1807.9 1106.2c0 4.9-3.9 8.8-8.8 8.8-4.9 0-8.8-3.9-8.8-8.8 0-4.9 3.9-8.9 8.8-8.9 4.9 0 8.8 4 8.8 8.9z"/>
										</g>
										<g id="&lt;Group&gt;" style="opacity: .9">
											<path id="&lt;Path&gt;" class="s0" d="m1922.4 813.8c0 4.9-3.9 8.9-8.8 8.9-4.9 0-8.8-4-8.8-8.9 0-4.8 3.9-8.8 8.8-8.8 4.9 0 8.8 4 8.8 8.8z"/>
										</g>
										<g id="&lt;Group&gt;" style="opacity: .3">
											<path id="&lt;Path&gt;" class="s0" d="m1800.1 782c0 3.7-3 6.7-6.6 6.7-3.7 0-6.6-3-6.6-6.7 0-3.6 2.9-6.6 6.6-6.6 3.6 0 6.6 3 6.6 6.6z"/>
										</g>
										<g id="&lt;Group&gt;" style="opacity: .5">
											<path id="&lt;Path&gt;" class="s0" d="m1824.7 842.1c0 5.9-4.7 10.6-10.6 10.6-5.8 0-10.5-4.7-10.5-10.6 0-5.8 4.7-10.6 10.5-10.6 5.9 0 10.6 4.8 10.6 10.6z"/>
										</g>
										<g id="&lt;Group&gt;" style="opacity: .5">
											<path id="&lt;Path&gt;" class="s0" d="m1984.9 890.7c0 5.9-4.7 10.6-10.6 10.6-5.8 0-10.5-4.7-10.5-10.6 0-5.8 4.7-10.6 10.5-10.6 5.9 0 10.6 4.8 10.6 10.6z"/>
										</g>
									</g>
									<g id="&lt;Group&gt;">
										<g id="&lt;Group&gt;" style="opacity: .5">
											<path id="&lt;Path&gt;" class="s0" d="m3680.5 208.5c0 9.8-7.9 17.7-17.6 17.7-9.7 0-17.6-7.9-17.6-17.7 0-9.7 7.9-17.6 17.6-17.6 9.7 0 17.6 7.9 17.6 17.6z"/>
										</g>
										<g id="&lt;Group&gt;" style="opacity: .5">
											<path id="&lt;Path&gt;" class="s0" d="m3200.3 480.6c0 4.9-4 8.8-8.8 8.8-4.9 0-8.8-3.9-8.8-8.8 0-4.9 3.9-8.9 8.8-8.9 4.8 0 8.8 4 8.8 8.9z"/>
										</g>
										<g id="&lt;Group&gt;" style="opacity: .5">
											<path id="&lt;Path&gt;" class="s0" d="m2964.4 325c0 4.9-3.9 8.9-8.8 8.9-4.9 0-8.8-4-8.8-8.9 0-4.8 3.9-8.8 8.8-8.8 4.9 0 8.8 4 8.8 8.8z"/>
										</g>
										<g id="&lt;Group&gt;" style="opacity: .9">
											<path id="&lt;Path&gt;" class="s0" d="m3110.5 434.6c0 4.9-3.9 8.9-8.8 8.9-4.9 0-8.8-4-8.8-8.9 0-4.9 3.9-8.8 8.8-8.8 4.9 0 8.8 3.9 8.8 8.8z"/>
										</g>
										<g id="&lt;Group&gt;" style="opacity: .2">
											<path id="&lt;Path&gt;" class="s0" d="m2967.9 484.1c0 3.9-3.1 7.1-7 7.1-3.9 0-7.1-3.2-7.1-7.1 0-3.9 3.2-7 7.1-7 3.9 0 7 3.1 7 7z"/>
										</g>
										<g id="&lt;Group&gt;" style="opacity: .2">
											<path id="&lt;Path&gt;" class="s0" d="m3163.3 386.9c0 2.9-2.4 5.3-5.3 5.3-2.9 0-5.3-2.4-5.3-5.3 0-2.9 2.4-5.3 5.3-5.3 2.9 0 5.3 2.4 5.3 5.3z"/>
										</g>
										<g id="&lt;Group&gt;" style="opacity: .2">
											<path id="&lt;Path&gt;" class="s0" d="m3133.4 431.1c0 2.9-2.4 5.3-5.3 5.3-2.9 0-5.3-2.4-5.3-5.3 0-2.9 2.4-5.3 5.3-5.3 2.9 0 5.3 2.4 5.3 5.3z"/>
										</g>
										<g id="&lt;Group&gt;" style="opacity: .2">
											<path id="&lt;Path&gt;" class="s0" d="m3107 371c0 2.9-2.4 5.3-5.3 5.3-2.9 0-5.3-2.4-5.3-5.3 0-2.9 2.4-5.3 5.3-5.3 2.9 0 5.3 2.4 5.3 5.3z"/>
										</g>
										<g id="&lt;Group&gt;">
											<g id="&lt;Group&gt;" style="opacity: .5">
												<path id="&lt;Path&gt;" class="s0" d="m2846.5 652c0 4.9-4 8.9-8.8 8.9-4.9 0-8.8-4-8.8-8.9 0-4.8 3.9-8.8 8.8-8.8 4.8 0 8.8 4 8.8 8.8z"/>
											</g>
											<g id="&lt;Group&gt;" style="opacity: .2">
												<path id="&lt;Path&gt;" class="s0" d="m2879.9 444.3c0 3-2.4 5.4-5.3 5.4-2.9 0-5.3-2.4-5.3-5.4 0-2.9 2.4-5.3 5.3-5.3 2.9 0 5.3 2.4 5.3 5.3z"/>
											</g>
											<g id="&lt;Group&gt;" style="opacity: .2">
												<path id="&lt;Path&gt;" class="s0" d="m2852.6 538c0 3-2.3 5.3-5.3 5.3-2.9 0-5.2-2.3-5.2-5.3 0-2.9 2.3-5.3 5.2-5.3 3 0 5.3 2.4 5.3 5.3z"/>
											</g>
											<g id="&lt;Group&gt;" style="opacity: .2">
												<path id="&lt;Path&gt;" class="s0" d="m2886.1 511.5c0 2.9-2.4 5.3-5.3 5.3-2.9 0-5.3-2.4-5.3-5.3 0-2.9 2.4-5.3 5.3-5.3 2.9 0 5.3 2.4 5.3 5.3z"/>
											</g>
											<g id="&lt;Group&gt;" style="opacity: .5">
												<path id="&lt;Path&gt;" class="s0" d="m2853.5 289.7c0 3.9-3.1 7.1-7 7.1-3.9 0-7.1-3.2-7.1-7.1 0-3.9 3.2-7.1 7.1-7.1 3.9 0 7 3.2 7 7.1z"/>
											</g>
											<g id="&lt;Group&gt;" style="opacity: .2">
												<path id="&lt;Path&gt;" class="s0" d="m2911.6 363.9c0 3.9-3.2 7.1-7.1 7.1-3.8 0-7-3.2-7-7.1 0-3.9 3.2-7 7-7 3.9 0 7.1 3.1 7.1 7z"/>
											</g>
										</g>
									</g>
									<g id="&lt;Group&gt;">
										<g id="&lt;Group&gt;">
										</g>
									</g>
									<g id="&lt;Group&gt;">
									</g>
									<g id="&lt;Group&gt;">
										<g id="&lt;Group&gt;">
										</g>
										<g id="&lt;Group&gt;">
										</g>
									</g>
									<g id="&lt;Group&gt;">
									</g>
									<g id="&lt;Group&gt;">
										<g id="&lt;Group&gt;">
											<g id="&lt;Group&gt;">
											</g>
										</g>
										<g id="&lt;Group&gt;">
											<g id="&lt;Group&gt;">
											</g>
										</g>
									</g>
									<g id="&lt;Group&gt;">
									</g>
									<g id="&lt;Group&gt;">
									</g>
								</g>
							</g>
						</g>
					</g>
				</g>
			</g>
		</g>
	</g>
</svg>