<svg version="1.2" xmlns="http://www.w3.org/2000/svg" viewBox="0 0 272 280" width="474" height="488"><defs><linearGradient id="P" gradientUnits="userSpaceOnUse"/><radialGradient id="g1" cx="0" cy="0" r="1" href="#P" gradientTransform="matrix(330.362,0,0,330.362,-329.233,192.135)"><stop stop-color="#ffb300"/><stop offset="1" stop-color="#ff1420"/></radialGradient><radialGradient id="g2" cx="0" cy="0" r="1" href="#P" gradientTransform="matrix(191.269,0,0,191.269,-205.712,265.676)"><stop stop-color="#ffb300"/><stop offset="1" stop-color="#ff1420"/></radialGradient><radialGradient id="g3" cx="0" cy="0" r="1" href="#P" gradientTransform="matrix(255.236,0,0,255.236,-265.988,232.02)"><stop stop-color="#ffb300"/><stop offset="1" stop-color="#ff1420"/></radialGradient><radialGradient id="g4" cx="0" cy="0" r="1" href="#P" gradientTransform="matrix(203.626,0,0,203.626,-263.068,228.857)"><stop stop-color="#ffb300"/><stop offset="1" stop-color="#ff1420"/></radialGradient><radialGradient id="g5" cx="0" cy="0" r="1" href="#P" gradientTransform="matrix(256.559,0,0,256.559,-432.606,623.666)"><stop stop-color="#ff0377"/><stop offset=".55" stop-color="#b1017f"/><stop offset="1" stop-color="#710086"/></radialGradient><radialGradient id="g6" cx="0" cy="0" r="1" href="#P" gradientTransform="matrix(182.325,-0.152,.152,182.325,-370.438,545.509)"><stop stop-color="#ff0377"/><stop offset=".55" stop-color="#b1017f"/><stop offset="1" stop-color="#710086"/></radialGradient><radialGradient id="g7" cx="0" cy="0" r="1" href="#P" gradientTransform="matrix(358.997,0,0,358.997,-177.751,549.305)"><stop stop-color="#ff0377"/><stop offset=".55" stop-color="#b1017f"/><stop offset="1" stop-color="#710086"/></radialGradient><radialGradient id="g8" cx="0" cy="0" r="1" href="#P" gradientTransform="matrix(153.09,0,0,153.09,-132.354,716.339)"><stop stop-color="#ff0377"/><stop offset=".55" stop-color="#b1017f"/><stop offset="1" stop-color="#710086"/></radialGradient><radialGradient id="g9" cx="0" cy="0" r="1" href="#P" gradientTransform="matrix(161.052,0,0,161.052,-274.787,725.244)"><stop stop-color="#ff0377"/><stop offset=".55" stop-color="#b1017f"/><stop offset="1" stop-color="#710086"/></radialGradient><radialGradient id="g10" cx="0" cy="0" r="1" href="#P" gradientTransform="matrix(250.963,0,0,250.963,151.06,532.3)"><stop stop-color="#b4df00"/><stop offset="1" stop-color="#008b17"/></radialGradient><radialGradient id="g11" cx="0" cy="0" r="1" href="#P" gradientTransform="matrix(286.908,0,0,286.908,152.927,619.702)"><stop stop-color="#b4df00"/><stop offset="1" stop-color="#008b17"/></radialGradient><radialGradient id="g12" cx="0" cy="0" r="1" href="#P" gradientTransform="matrix(157.686,0,0,157.686,86.3,722.688)"><stop stop-color="#b4df00"/><stop offset="1" stop-color="#008b17"/></radialGradient><radialGradient id="g13" cx="0" cy="0" r="1" href="#P" gradientTransform="matrix(201.023,0,0,201.023,.884,710.783)"><stop stop-color="#b4df00"/><stop offset="1" stop-color="#008b17"/></radialGradient><radialGradient id="g14" cx="0" cy="0" r="1" href="#P" gradientTransform="matrix(161.644,0,0,161.644,270.152,687.005)"><stop stop-color="#b4df00"/><stop offset=".5" stop-color="#70bf09"/><stop offset="1" stop-color="#008b17"/></radialGradient><radialGradient id="g15" cx="0" cy="0" r="1" href="#P" gradientTransform="matrix(144.196,0,0,144.196,191.761,713.414)"><stop stop-color="#b4df00"/><stop offset=".46" stop-color="#62b90b"/><stop offset="1" stop-color="#008b17"/></radialGradient><radialGradient id="g16" cx="0" cy="0" r="1" href="#P" gradientTransform="matrix(186.707,0,0,186.707,149.204,745.634)"><stop stop-color="#b4df00"/><stop offset="1" stop-color="#008b17"/></radialGradient><radialGradient id="g17" cx="0" cy="0" r="1" href="#P" gradientTransform="matrix(4.054,0,0,4.054,85.295,258.571)"><stop stop-color="#00e1e0"/><stop offset="1" stop-color="#710086"/></radialGradient><radialGradient id="g18" cx="0" cy="0" r="1" href="#P" gradientTransform="matrix(248.811,0,0,248.811,241.474,130.679)"><stop stop-color="#00e1e0"/><stop offset="1" stop-color="#710086"/></radialGradient><radialGradient id="g19" cx="0" cy="0" r="1" href="#P" gradientTransform="matrix(265.393,0,0,265.393,167.994,128.193)"><stop stop-color="#00e1e0"/><stop offset="1" stop-color="#710086"/></radialGradient><radialGradient id="g20" cx="0" cy="0" r="1" href="#P" gradientTransform="matrix(260.828,0,0,260.828,49.73,178.222)"><stop stop-color="#00e1e0"/><stop offset="1" stop-color="#710086"/></radialGradient></defs><style>tspan{white-space:pre}.a{fill:url(#g1)}.b{fill:url(#g2)}.c{fill:url(#g3)}.d{fill:url(#g4)}.e{font-size: 15px;fill: #ff6600;font-weight: 700;font-family: "Montserrat-Bold", "Montserrat"}.f{font-size: 10px;fill: #ff6600;font-weight: 500;font-family: "Montserrat-Medium", "Montserrat"}.g{font-size: 15px;fill: #990088;font-weight: 700;font-family: "Montserrat-Bold", "Montserrat"}.h{font-size: 10px;fill: #990088;font-weight: 500;font-family: "Montserrat-Medium", "Montserrat"}.i{fill:url(#g5)}.j{fill:url(#g6)}.k{fill:url(#g7)}.l{fill:url(#g8)}.m{fill:url(#g9)}.n{font-size: 15px;fill: #00a000;font-weight: 700;font-family: "Montserrat-Bold", "Montserrat"}.o{font-size: 10px;fill: #00a000;font-weight: 500;font-family: "Montserrat-Medium", "Montserrat"}.p{fill:url(#g10)}.q{fill:url(#g11)}.r{fill:url(#g12)}.s{fill:url(#g13)}.t{fill:url(#g14)}.u{fill:url(#g15)}.v{fill:url(#g16)}.w{font-size: 15px;fill: #3c55ad;font-weight: 700;font-family: "Montserrat-Bold", "Montserrat"}.x{font-size: 10px;fill: #3c55ad;font-weight: 500;font-family: "Montserrat-Medium", "Montserrat"}.y{fill:url(#g17)}.z{fill:url(#g18)}.A{fill:url(#g19)}.B{fill:url(#g20)}</style><path  d="m-407.3 279.9q1.3-4.2 2.7-8.2c-1.9 5.1-2.7 8.2-2.7 8.2z"/><path class="a" d="m-360.9 198.6q1.5-1.6 3-3.1l6.2-19.4 32.7-102.5 25 78.4c20.5-9.2 41.4-15.1 60.8-18.8l-45.1-132.6h-81.4l-94.9 279.3h47.3c0 0 0.8-3.1 2.7-8.2 10.4-30.1 25.7-54.1 43.7-73.1z"/><path class="b" d="m-286.3 176.1l19.2 59.9 13.9 43.9h69.8l-47.8-140.9c-23.1 4.4-43.3 11-60.9 18.9z"/><path  d="m-407.3 279.9q1.3-4.2 2.7-8.2c-1.9 5.1-2.7 8.2-2.7 8.2z"/><path  d="m-404.6 271.7q-1.4 4-2.7 8.2h22.5l13.9-43.9 9.9-30.8c-26.4 26.5-38.7 53.4-43.6 66.5z"/><path class="c" d="m-360.9 198.6c63.8-67.5 162-72.5 200.5-71.6v-13.7c-259.4-22.1-294.2 166.6-294.2 166.6h47.3c0 0 0.8-3.1 2.7-8.2 10.4-30.1 25.7-54.1 43.7-73.1z"/><path class="d" d="m-358.6 202.8c-28 27.2-41 55.4-46 68.9q-1.4 4-2.7 8.2h48.4c32.4-125.1 198.5-133.2 198.5-133.2v-13.8c-101.1-0.7-162.2 34.8-198.2 69.9z"/><text style="transform:matrix(2,0,0,2,-451.082,321.359)" ><tspan x="0" y="0" class="e">COMPANY NAME
</tspan></text><text style="transform:matrix(2,0,0,2,-392.895,343.029)" ><tspan x="0" y="0" class="f">YOUR TAGLINE
</tspan></text><text style="transform:matrix(2,0,0,2,-448.991,776.867)" ><tspan x="0" y="0" class="g">COMPANY NAME
</tspan></text><text style="transform:matrix(2,0,0,2,-391.231,798.377)" ><tspan x="0" y="0" class="h">YOUR TAGLINE
</tspan></text><path class="i" d="m-199 554.9c-12.8 10.7-30.2 15-40.9 15.2-134 1.8-193.2 111.2-209.9 149.7q4.9-4.5 9.9-8.9 16.1-14.2 33-27.3c22.5-17.6 46.2-33.6 71.1-47.4 12.5-6.9 25.3-13.1 38.4-18.7 13.1-5.5 26.5-10.2 40.2-14.1-13.5 4.6-26.6 9.9-39.3 16.1-12.7 6.2-25.1 12.9-37.1 20.4-24 14.9-46.6 31.9-67.9 50.3q-16 13.8-31.1 28.6-7.2 7.1-14.3 14.4c33.2 0.2 59.2 1.8 80.7-2.2 100.2-18.6 73.9-77 73.9-77 69.9 0 93.3-99.1 93.3-99.1z"/><path class="j" d="m-280 455.9h-80.7l-33 96.8c32-25.7 74.8-45.8 130.7-47.1z"/><path class="k" d="m-393.7 552.7l-32.9 97c21.2-22.7 50.1-46.4 87.4-62.2l18.8-59.1 15.3 47.7c19.3-4.9 40.5-7.5 63.6-7.1l-21.5-63.4c-55.9 1.3-98.7 21.4-130.7 47.1z"/><path class="l" d="m-259.4 719.4l4.4 13.7h69.3l-19-55.9c-21.7 11.8-39.8 26.7-54.7 42.2z"/><path class="m" d="m-277.9 661.4l9 28.2 9.5 29.8c14.9-15.5 33-30.4 54.7-42.2l-19.6-57.7c-12.3 19.7-29.6 37.4-53.6 41.9z"/><text style="transform:matrix(2,0,0,2,4.498,776.868)" ><tspan x="0" y="0" class="n">COMPANY NAME
</tspan></text><text style="transform:matrix(2,0,0,2,62.262,798.378)" ><tspan x="0" y="0" class="o">YOUR TAGLINE
</tspan></text><path class="p" d="m86.7 606.2c7.1 3.3 14 7.1 20.5 11.5l28.5-89.3 28.6 89.3c6.3-4.2 12.9-7.9 19.6-11.1-15.6-31.1-32-68.5-48.2-113.3-16.5 44.5-33.1 81.7-49 112.9z"/><path class="q" d="m176.1 455.9h-80.7l-46.5 136.7c12.4 3.3 25.3 7.6 37.8 13.6 15.9-31.2 32.5-68.4 49-112.9 16.2 44.8 32.6 82.2 48.2 113.3 12.8-6.1 26-10.7 38.7-14z"/><path class="r" d="m70.4 733.1l13.9-43.5 15-47.2c-5.7-8.6-13-15.6-20.5-21.2-31.7 59.3-59.8 93.6-77.7 111.9z"/><path class="s" d="m1.1 733.1c17.9-18.3 46-52.6 77.7-111.9-12.4-9.3-25.4-14.9-33.6-17.8z"/><path class="t" d="m270.3 733.1h0.1l-44-129.4c-13 5.7-24.3 12.7-33.8 19.6 31.6 59 59.8 92.4 77.7 109.8z"/><path class="u" d="m192.6 623.3c-8.5 6.1-15.6 12.3-21 17.4l15.6 48.9 13.9 43.5h69.2c-17.9-17.4-46.1-50.8-77.7-109.8z"/><path class="v" d="m135.7 658.5c-42.9-68.3-158.9-75.3-158.9-75.3 138.3 34.4 158.9 150.5 158.9 150.5 0 0 20.7-116.1 158.9-150.5 0 0-115.9 7-158.9 75.3z"/><text style="transform:matrix(2,0,0,2,3.532,321.361)" ><tspan x="0" y="0" class="w">COMPANY NAME
</tspan></text><text style="transform:matrix(2,0,0,2,61.719,343.029)" ><tspan x="0" y="0" class="x">YOUR TAGLINE
</tspan></text><path class="y" d="m90.3 255.8q-5 3-10 5.6 5-2.6 10-5.6z"/><path  d="m54.6 271.5q-0.3 0.1-0.6 0.2 0.3-0.1 0.6-0.2z"/><path  d="m9.1 279.6q0 0 0 0 0 0 0 0z"/><path  d="m11.9 279.4q0 0 0 0 0 0 0 0z"/><path  d="m59.8 269.9q-0.3 0.1-0.6 0.2 0.3-0.1 0.6-0.2z"/><path  d="m30.7 277.1q-0.2 0-0.4 0.1 0.2-0.1 0.4-0.1z"/><path  d="m74.9 263.9q0.1 0 0.1 0 0 0-0.1 0z"/><path  d="m64.9 268q-0.3 0.1-0.5 0.2 0.2-0.1 0.5-0.2z"/><path  d="m70.1 266q-0.2 0.1-0.5 0.2 0.3-0.1 0.5-0.2z"/><path  d="m26.5 277.8q-0.2 0-0.4 0 0.2 0 0.4 0z"/><path  d="m39.9 275.3q-0.3 0.1-0.6 0.2 0.3-0.1 0.6-0.2z"/><path  d="m22.4 278.3q-0.1 0.1-0.3 0.1 0.2 0 0.3-0.1z"/><path  d="m15.1 279.1q0 0-0.1 0.1 0.1-0.1 0.1-0.1z"/><path  d="m35.2 276.3q-0.3 0-0.5 0.1 0.2-0.1 0.5-0.1z"/><path  d="m49.6 272.9q-0.3 0.1-0.6 0.2 0.3-0.1 0.6-0.2z"/><path  d="m44.7 274.2q-0.3 0.1-0.6 0.2 0.3-0.1 0.6-0.2z"/><path  d="m18.6 278.8q-0.1 0-0.2 0 0.1 0 0.2 0z"/><path class="z" d="m219.5 127.1c4.4-1.2 9.1-2.2 14.1-2.8l-4.4-9.5c0 0-28.4 0.1-53.9 26.1-4.5 4.4-8.8 9.7-13 16v0.1c-7.1 10.8-13.5 24.4-18.2 41.6 0 0 5.6-17.3 20.3-35.3l4.1 12.8 19.1 59.9 14 43.9h69.8z"/><path class="A" d="m90.3 168.7c-27 75.8-65.5 102-90.2 111v0.2c0 0 115.2 2.7 141.3-91.4 23.2-83.6 83.7-82.4 83.7-82.4l-25.4-55.2c-47.9 23.2-88.8 60.1-109.4 117.8z"/><path class="B" d="m95.1 0.6l-95 279.1c24.7-9 63.2-35.2 90.2-111 20.6-57.7 61.5-94.6 109.4-117.8l-23.3-50.3z"/></svg>